<?xml version="1.0" encoding="UTF-8"?>
<svg version="1.1" xmlns="http://www.w3.org/2000/svg" width="360" height="360">
<path d="M0 0 C118.8 0 237.6 0 360 0 C360 118.8 360 237.6 360 360 C241.2 360 122.4 360 0 360 C0 241.2 0 122.4 0 0 Z " fill="#F9F9F8" transform="translate(0,0)"/>
<path d="M0 0 C22.4379453 -1.208744 45.66546397 2.53043618 66.04003906 12.11035156 C66.04003906 12.77035156 66.04003906 13.43035156 66.04003906 14.11035156 C66.92820313 14.36558594 67.81636719 14.62082031 68.73144531 14.88378906 C80.0935513 19.09595114 89.21657699 30.82863465 95.04003906 41.11035156 C95.04003906 41.77035156 95.04003906 42.43035156 95.04003906 43.11035156 C95.70003906 43.11035156 96.36003906 43.11035156 97.04003906 43.11035156 C98.50066757 45.75774073 99.04003906 47.00483491 99.04003906 50.11035156 C99.70003906 50.11035156 100.36003906 50.11035156 101.04003906 50.11035156 C101.88073321 51.71067293 102.71235411 53.31576328 103.54003906 54.92285156 C104.00410156 55.81617188 104.46816406 56.70949219 104.94628906 57.62988281 C106.04003906 60.11035156 106.04003906 60.11035156 106.04003906 63.11035156 C106.63558594 63.19671875 107.23113281 63.28308594 107.84472656 63.37207031 C110.65292548 64.31646461 111.46645121 65.526153 113.16503906 67.92285156 C113.66261719 68.60992187 114.16019531 69.29699219 114.67285156 70.00488281 C120.3275999 78.71319525 120.5625442 91.03326664 118.65917969 101.13085938 C117.91440663 104.17530924 116.98880094 107.14477322 116.01269531 110.12207031 C114.99190172 113.04804844 114.99190172 113.04804844 114.50097656 115.91113281 C113.94224278 118.57695588 112.96970528 119.25787199 111.04003906 121.11035156 C110.77191406 121.95597656 110.50378906 122.80160156 110.22753906 123.67285156 C109.04003906 126.11035156 109.04003906 126.11035156 106.04003906 127.17285156 C105.05003906 127.48222656 104.06003906 127.79160156 103.04003906 128.11035156 C101.73144257 129.80747363 101.73144257 129.80747363 101.04003906 132.11035156 C100.58371094 133.12355469 100.12738281 134.13675781 99.65722656 135.18066406 C97.81909465 139.445329 96.60834282 143.83433604 95.35253906 148.29785156 C92.98778909 156.46118137 90.10939293 164.28985112 86.87036133 172.14331055 C84.63533924 177.56797983 82.69455317 183.01759294 80.91503906 188.61035156 C79.62051287 192.30899782 77.89608614 195.66340698 76.04003906 199.11035156 C75.38003906 199.11035156 74.72003906 199.11035156 74.04003906 199.11035156 C73.95753906 199.81160156 73.87503906 200.51285156 73.79003906 201.23535156 C72.86661979 204.77512544 71.10452474 207.10746331 69.04003906 210.11035156 C68.75128906 210.89410156 68.46253906 211.67785156 68.16503906 212.48535156 C66.77159546 215.73671997 64.79562725 218.19364301 62.62988281 220.97363281 C60.57134563 223.74026633 58.84005679 226.6569875 57.11816406 229.64160156 C56.58449219 230.36863281 56.58449219 230.36863281 56.04003906 231.11035156 C55.38003906 231.11035156 54.72003906 231.11035156 54.04003906 231.11035156 C53.69972656 232.19316406 53.69972656 232.19316406 53.35253906 233.29785156 C51.78086119 236.66573271 49.72046382 238.56067924 47.04003906 241.11035156 C46.48316406 241.87347656 45.92628906 242.63660156 45.35253906 243.42285156 C44.91941406 243.97972656 44.48628906 244.53660156 44.04003906 245.11035156 C43.38003906 245.11035156 42.72003906 245.11035156 42.04003906 245.11035156 C42.04003906 245.77035156 42.04003906 246.43035156 42.04003906 247.11035156 C40.54394531 248.54785156 40.54394531 248.54785156 38.60253906 250.11035156 C35.88815668 252.255602 35.88815668 252.255602 34.04003906 255.11035156 C33.05003906 255.41972656 32.06003906 255.72910156 31.04003906 256.04785156 C30.05003906 256.39847656 29.06003906 256.74910156 28.04003906 257.11035156 C27.71003906 258.10035156 27.38003906 259.09035156 27.04003906 260.11035156 C23.06387249 263.00210907 18.63374052 264.47530528 14.04003906 266.11035156 C12.19289701 274.55442951 11.82154414 282.80621184 11.79003906 291.42285156 C11.78101563 292.44830078 11.77199219 293.47375 11.76269531 294.53027344 C11.80148649 304.48021163 13.35427194 312.38876136 20.04003906 320.11035156 C23.19062903 322.1933793 23.19062903 322.1933793 26.04003906 323.11035156 C26.04003906 323.44035156 26.04003906 323.77035156 26.04003906 324.11035156 C21.55143772 324.50640462 18.84552831 323.48878234 15.04003906 321.11035156 C13.05575707 319.20918086 11.64881117 317.38155925 10.04003906 315.11035156 C10.04003906 314.12035156 10.04003906 313.13035156 10.04003906 312.11035156 C8.92628906 313.22410156 8.92628906 313.22410156 7.79003906 314.36035156 C6.88253906 315.26785156 5.97503906 316.17535156 5.04003906 317.11035156 C4.01910156 318.19316406 4.01910156 318.19316406 2.97753906 319.29785156 C-0.3731838 322.43239876 -2.66548916 323.2193499 -7.20996094 323.23535156 C-8.44746094 323.19410156 -9.68496094 323.15285156 -10.95996094 323.11035156 C-10.95996094 322.78035156 -10.95996094 322.45035156 -10.95996094 322.11035156 C-10.37988281 322.00980469 -9.79980469 321.90925781 -9.20214844 321.80566406 C-4.03434989 320.56061689 -1.37812167 319.04873993 1.47753906 314.48535156 C6.63317782 305.40790213 6.35144162 295.59009159 6.29003906 285.42285156 C6.29777344 284.13056641 6.30550781 282.83828125 6.31347656 281.50683594 C6.31089844 280.25837891 6.30832031 279.00992187 6.30566406 277.72363281 C6.30228027 276.03427612 6.30228027 276.03427612 6.29882812 274.31079102 C6.02413534 270.91367057 5.37503144 268.24336402 4.04003906 265.11035156 C1.37278359 263.1735292 1.37278359 263.1735292 -1.83496094 261.86035156 C-2.88425781 261.38082031 -3.93355469 260.90128906 -5.01464844 260.40722656 C-5.98660156 259.97925781 -6.95855469 259.55128906 -7.95996094 259.11035156 C-9.29765129 258.45247106 -10.6330992 257.78980733 -11.95996094 257.11035156 C-11.95996094 256.45035156 -11.95996094 255.79035156 -11.95996094 255.11035156 C-12.49621094 254.88347656 -13.03246094 254.65660156 -13.58496094 254.42285156 C-16.7132305 252.69407101 -19.22187992 250.40139894 -21.95996094 248.11035156 C-22.82621094 247.61535156 -23.69246094 247.12035156 -24.58496094 246.61035156 C-27.41978105 244.81993886 -28.8828088 242.73733809 -30.95996094 240.11035156 C-32.68198082 238.54525435 -34.45864375 237.05902022 -36.24121094 235.56347656 C-46.93601073 226.52150947 -56.38389124 213.47457478 -62.95996094 201.11035156 C-62.95996094 200.45035156 -62.95996094 199.79035156 -62.95996094 199.11035156 C-63.61996094 199.11035156 -64.27996094 199.11035156 -64.95996094 199.11035156 C-65.79815251 197.48785216 -66.63037254 195.8622666 -67.45996094 194.23535156 C-67.92402344 193.33042969 -68.38808594 192.42550781 -68.86621094 191.49316406 C-69.95996094 189.11035156 -69.95996094 189.11035156 -69.95996094 187.11035156 C-70.61996094 187.11035156 -71.27996094 187.11035156 -71.95996094 187.11035156 C-72.35058594 185.2874349 -72.74121094 183.46451823 -73.13183594 181.64160156 C-73.95837331 178.87921247 -73.95837331 178.87921247 -75.78808594 175.61816406 C-78.58843074 170.15227761 -80.21377187 164.35451054 -81.95996094 158.48535156 C-82.48759033 156.75526855 -82.48759033 156.75526855 -83.02587891 154.99023438 C-84.48410112 150.18277443 -85.9235503 145.37979582 -87.15527344 140.50878906 C-88.93343183 133.53063805 -90.35880722 129.71574462 -95.95996094 125.11035156 C-96.28996094 124.12035156 -96.61996094 123.13035156 -96.95996094 122.11035156 C-97.44464844 121.62566406 -97.92933594 121.14097656 -98.42871094 120.64160156 C-101.04122906 118.02908344 -101.83412479 114.54559518 -102.95996094 111.11035156 C-103.24226563 110.37429687 -103.52457031 109.63824219 -103.81542969 108.87988281 C-105.99893574 102.43187668 -106.27695975 96.16915085 -106.33496094 89.42285156 C-106.34873779 88.53186768 -106.36251465 87.64088379 -106.37670898 86.72290039 C-106.32266881 78.97786304 -104.8712992 72.57261381 -99.52246094 66.73535156 C-98.65814453 65.7646875 -98.65814453 65.7646875 -97.77636719 64.77441406 C-95.95996094 63.11035156 -95.95996094 63.11035156 -93.81542969 62.14550781 C-91.80288524 61.27470654 -91.80288524 61.27470654 -91.19433594 59.25488281 C-91.03449219 58.4853125 -90.87464844 57.71574219 -90.70996094 56.92285156 C-87.12098661 43.69328131 -79.629948 33.51711548 -69.95996094 24.11035156 C-69.18394531 23.34851563 -68.40792969 22.58667969 -67.60839844 21.80175781 C-49.89795067 5.24906016 -23.44135113 1.31981698 0 0 Z " fill="#659C49" transform="translate(173.9599609375,16.8896484375)"/>
<path d="M0 0 C1.57527466 0.01142029 1.57527466 0.01142029 3.18237305 0.02307129 C5.73894779 0.04271486 8.29516231 0.07030217 10.8515625 0.10546875 C11.01505127 24.12272883 11.13850762 48.13990558 11.2142477 72.15760994 C11.25034925 83.30936402 11.29957226 94.46077246 11.37963867 105.61230469 C11.44938777 115.33148581 11.49456507 125.05041663 11.51018196 134.76984107 C11.51931159 139.91682345 11.54078108 145.06308973 11.5916729 150.20984268 C11.63918792 155.05434703 11.65384318 159.89784039 11.64331627 164.74255562 C11.64524201 166.52035453 11.65916663 168.29818725 11.68600082 170.07578468 C11.87863266 183.49469861 11.87863266 183.49469861 9.31007576 187.52300644 C6.91028145 189.67208272 5.13117292 191.10546875 1.8515625 191.10546875 C1.8515625 191.76546875 1.8515625 192.42546875 1.8515625 193.10546875 C1.1915625 193.10546875 0.5315625 193.10546875 -0.1484375 193.10546875 C-0.1484375 193.76546875 -0.1484375 194.42546875 -0.1484375 195.10546875 C-2.0635954 195.92151874 -3.98062584 196.73317507 -5.8984375 197.54296875 C-7.49945313 198.22166016 -7.49945313 198.22166016 -9.1328125 198.9140625 C-20.84684496 203.54201574 -34.8517654 201.43758733 -46.2734375 196.79296875 C-48.24058899 195.91666868 -50.19925177 195.02103513 -52.1484375 194.10546875 C-53.56962891 193.44611328 -53.56962891 193.44611328 -55.01953125 192.7734375 C-58.99812569 190.86209532 -62.03459911 189.22756665 -65.1484375 186.10546875 C-66.13070312 185.6878125 -66.13070312 185.6878125 -67.1328125 185.26171875 C-77.75428178 179.16878288 -81.138286 154.78086286 -84.1484375 144.10546875 C-84.54958898 142.58115396 -84.94513081 141.0553379 -85.33203125 139.52734375 C-87.12286601 132.54234509 -88.53847301 128.71810622 -94.1484375 124.10546875 C-94.4784375 123.11546875 -94.8084375 122.12546875 -95.1484375 121.10546875 C-95.633125 120.62078125 -96.1178125 120.13609375 -96.6171875 119.63671875 C-99.22970563 117.02420062 -100.02260136 113.54071237 -101.1484375 110.10546875 C-101.43074219 109.36941406 -101.71304688 108.63335937 -102.00390625 107.875 C-104.1874123 101.42699387 -104.46543632 95.16426803 -104.5234375 88.41796875 C-104.53721436 87.52698486 -104.55099121 86.63600098 -104.56518555 85.71801758 C-104.51114538 77.97298023 -103.05977577 71.567731 -97.7109375 65.73046875 C-96.84662109 64.75980469 -96.84662109 64.75980469 -95.96484375 63.76953125 C-94.1484375 62.10546875 -94.1484375 62.10546875 -92.00390625 61.140625 C-89.99136181 60.26982373 -89.99136181 60.26982373 -89.3828125 58.25 C-89.22296875 57.48042969 -89.063125 56.71085937 -88.8984375 55.91796875 C-85.30946318 42.6883985 -77.81842456 32.51223267 -68.1484375 23.10546875 C-67.37242188 22.34363281 -66.59640625 21.58179687 -65.796875 20.796875 C-55.81796005 11.47029195 -45.19512193 7.34007205 -32.1484375 4.10546875 C-30.98344727 3.80697021 -30.98344727 3.80697021 -29.79492188 3.50244141 C-19.78956069 0.99699719 -10.32327179 -0.14451098 0 0 Z " fill="#598841" transform="translate(172.1484375,17.89453125)"/>
<path d="M0 0 C0.51949219 0.39832031 1.03898437 0.79664063 1.57421875 1.20703125 C2.27160156 1.73683594 2.96898438 2.26664063 3.6875 2.8125 C4.37199219 3.33457031 5.05648437 3.85664063 5.76171875 4.39453125 C10.08041751 7.49223665 14.33284055 9.63933683 19.3125 11.5 C20.4571875 11.92796875 21.601875 12.3559375 22.78125 12.796875 C23.8434375 13.19390625 24.905625 13.5909375 26 14 C26.7734375 14.31453125 27.546875 14.6290625 28.34375 14.953125 C32.86441295 16.78291714 37.15766712 17.71416785 42 18 C43.36125 18.09667969 43.36125 18.09667969 44.75 18.1953125 C51.58310466 18.46223065 57.01053362 17.37104989 63.40625 14.97265625 C65.60081153 14.14969568 67.71696883 13.51152821 70 13 C70 12.34 70 11.68 70 11 C70.66 11 71.32 11 72 11 C72 10.34 72 9.68 72 9 C72.61875 8.9175 73.2375 8.835 73.875 8.75 C76.67505419 7.76174558 76.74113932 6.59640015 78 4 C80.125 2.75 80.125 2.75 82 2 C83.0828125 3.175625 83.0828125 3.175625 84.1875 4.375 C86.83299041 6.84412438 88.60373611 7.93260278 92 9 C92 9.66 92 10.32 92 11 C93.58298026 11.4803318 95.16639978 11.95921612 96.75 12.4375 C97.63171875 12.70433594 98.5134375 12.97117188 99.421875 13.24609375 C114.10874556 17.54089075 128.50757722 15.91486668 142 9 C142.86625 8.57460937 143.7325 8.14921875 144.625 7.7109375 C146.42236286 6.81867522 148.21226296 5.91139536 150 5 C150.66 5 151.32 5 152 5 C152.33 3.68 152.66 2.36 153 1 C153.33 1.66 153.66 2.32 154 3 C153.10333658 5.24310013 152.10853317 7.44754321 151.0625 9.625 C150.49660156 10.81351563 149.93070313 12.00203125 149.34765625 13.2265625 C148.90292969 14.14179688 148.45820313 15.05703125 148 16 C147.34 16 146.68 16 146 16 C145.9175 16.70125 145.835 17.4025 145.75 18.125 C144.82658073 21.66477388 143.06448568 23.99711174 141 27 C140.71125 27.78375 140.4225 28.5675 140.125 29.375 C138.7315564 32.62636841 136.75558818 35.08329145 134.58984375 37.86328125 C132.53130656 40.62991477 130.80001773 43.54663594 129.078125 46.53125 C128.54445312 47.25828125 128.54445312 47.25828125 128 48 C127.34 48 126.68 48 126 48 C125.773125 48.721875 125.54625 49.44375 125.3125 50.1875 C123.74082213 53.55538115 121.68042475 55.45032767 119 58 C118.443125 58.763125 117.88625 59.52625 117.3125 60.3125 C116.879375 60.869375 116.44625 61.42625 116 62 C115.34 62 114.68 62 114 62 C114 62.66 114 63.32 114 64 C112.50390625 65.4375 112.50390625 65.4375 110.5625 67 C107.84811762 69.14525044 107.84811762 69.14525044 106 72 C105.01 72.309375 104.02 72.61875 103 72.9375 C102.01 73.288125 101.02 73.63875 100 74 C99.505 75.485 99.505 75.485 99 77 C95.02383342 79.89175751 90.59370146 81.36495372 86 83 C84.15285795 91.44407795 83.78150508 99.69586028 83.75 108.3125 C83.74097656 109.33794922 83.73195313 110.36339844 83.72265625 111.41992188 C83.76144743 121.36986007 85.31423287 129.2784098 92 137 C95.15058997 139.08302774 95.15058997 139.08302774 98 140 C98 140.33 98 140.66 98 141 C93.51139866 141.39605306 90.80548925 140.37843078 87 138 C85.01571801 136.0988293 83.60877211 134.27120769 82 132 C82 131.01 82 130.02 82 129 C80.88625 130.11375 80.88625 130.11375 79.75 131.25 C78.8425 132.1575 77.935 133.065 77 134 C76.319375 134.721875 75.63875 135.44375 74.9375 136.1875 C71.58677713 139.3220472 69.29447178 140.10899834 64.75 140.125 C63.5125 140.08375 62.275 140.0425 61 140 C61 139.67 61 139.34 61 139 C61.58007812 138.89945313 62.16015625 138.79890625 62.7578125 138.6953125 C67.92561104 137.45026533 70.58183926 135.93838837 73.4375 131.375 C78.59313875 122.29755057 78.31140256 112.47974003 78.25 102.3125 C78.25773437 101.02021484 78.26546875 99.72792969 78.2734375 98.39648438 C78.27085937 97.14802734 78.26828125 95.89957031 78.265625 94.61328125 C78.26224121 92.92392456 78.26224121 92.92392456 78.25878906 91.20043945 C77.98409628 87.80331901 77.33499238 85.13301246 76 82 C73.33274452 80.06317764 73.33274452 80.06317764 70.125 78.75 C69.07570313 78.27046875 68.02640625 77.7909375 66.9453125 77.296875 C65.97335938 76.86890625 65.00140625 76.4409375 64 76 C62.66230965 75.3421195 61.32686174 74.67945577 60 74 C60 73.34 60 72.68 60 72 C59.46375 71.773125 58.9275 71.54625 58.375 71.3125 C55.24673044 69.58371945 52.73808101 67.29104738 50 65 C49.13375 64.505 48.2675 64.01 47.375 63.5 C44.54017989 61.7095873 43.07715214 59.62698652 41 57 C39.27798011 55.43490279 37.50131719 53.94866866 35.71875 52.453125 C25.02395021 43.4111579 15.5760697 30.36422321 9 18 C9 17.34 9 16.68 9 16 C8.34 16 7.68 16 7 16 C6.16180842 14.37750059 5.3295884 12.75191503 4.5 11.125 C4.0359375 10.22007812 3.571875 9.31515625 3.09375 8.3828125 C2 6 2 6 2 4 C1.34 4 0.68 4 0 4 C0 2.68 0 1.36 0 0 Z " fill="#99C23C" transform="translate(102,200)"/>
<path d="M0 0 C2 2 2 2 2 5 C2.59554687 5.08636719 3.19109375 5.17273438 3.8046875 5.26171875 C6.61288641 6.20611305 7.42641215 7.41580144 9.125 9.8125 C9.62257813 10.49957031 10.12015625 11.18664062 10.6328125 11.89453125 C16.28756084 20.60284369 16.52250513 32.92291507 14.61914062 43.02050781 C13.87436757 46.06495767 12.94876188 49.03442166 11.97265625 52.01171875 C10.95186265 54.93769688 10.95186265 54.93769688 10.4609375 57.80078125 C9.90220371 60.46660432 8.92966622 61.14752043 7 63 C6.731875 63.845625 6.46375 64.69125 6.1875 65.5625 C5 68 5 68 2 69.0625 C0.515 69.5265625 0.515 69.5265625 -1 70 C-2.3498008 71.78265886 -2.3498008 71.78265886 -3 74 C-3.37125 74.9075 -3.7425 75.815 -4.125 76.75 C-4.41375 77.4925 -4.7025 78.235 -5 79 C-5.33 78.01 -5.66 77.02 -6 76 C-6.67289062 76.32355469 -7.34578125 76.64710938 -8.0390625 76.98046875 C-14.3588216 79.15653356 -23.760505 79.25464526 -30.125 76.875 C-33.64348262 74.58033742 -35.58808026 72.43515841 -38 69 C-38 68.34 -38 67.68 -38 67 C-38.66 67 -39.32 67 -40 67 C-42.91579636 60.40474632 -43.3020682 53.97644844 -43.3125 46.875 C-43.31765625 46.0284082 -43.3228125 45.18181641 -43.328125 44.30957031 C-43.26904198 38.89714369 -42.50698111 34.19938501 -41 29 C-40.34 29 -39.68 29 -39 29 C-38.8453125 27.66582031 -38.8453125 27.66582031 -38.6875 26.3046875 C-36.60116163 16.27603827 -27.17835143 8.45223429 -19 3 C-13.13086869 1.49509454 -7.01358093 1.91242358 -1 2 C-0.67 1.34 -0.34 0.68 0 0 Z " fill="#F7E938" transform="translate(278,75)"/>
<path d="M0 0 C0.33 0.99 0.66 1.98 1 3 C1.90621094 2.94199219 2.81242187 2.88398437 3.74609375 2.82421875 C11.96434836 2.51983895 17.35457993 3.05817279 24 8 C25.010625 8.721875 26.02125 9.44375 27.0625 10.1875 C27.701875 10.785625 28.34125 11.38375 29 12 C29 12.66 29 13.32 29 14 C29.99 14.33 30.98 14.66 32 15 C40.52937078 26.94111909 44.01816577 39.42969681 43 54 C41.43289872 62.60888105 40.01352659 68.56451689 33 74 C32.34 74.99 31.68 75.98 31 77 C26.47567411 78.98937271 22.40850772 79.29753504 17.5 79.3125 C16.2315625 79.32925781 14.963125 79.34601563 13.65625 79.36328125 C9.77254392 78.9774002 7.40533044 77.81784552 4 76 C3.01 76.495 3.01 76.495 2 77 C1.5875 76.2575 1.175 75.515 0.75 74.75 C-0.88475569 71.96158523 -0.88475569 71.96158523 -3.125 69.875 C-5 68 -5 68 -6 65 C-6.4846875 64.5153125 -6.969375 64.030625 -7.46875 63.53125 C-10.08126813 60.91873187 -10.87416386 57.43524362 -12 54 C-12.28230469 53.26394531 -12.56460938 52.52789062 -12.85546875 51.76953125 C-15.0389748 45.32152512 -15.31699882 39.05879928 -15.375 32.3125 C-15.38877686 31.42151611 -15.40255371 30.53053223 -15.41674805 29.61254883 C-15.36270788 21.86751148 -13.91133827 15.46226225 -8.5625 9.625 C-7.98628906 8.97789063 -7.41007812 8.33078125 -6.81640625 7.6640625 C-4.97121829 5.97363224 -3.22282714 5.10427387 -1 4 C-0.19471111 1.94999129 -0.19471111 1.94999129 0 0 Z " fill="#BDB64C" transform="translate(83,74)"/>
<path d="M0 0 C0.495 0.99 0.495 0.99 1 2 C0.10333658 4.24310013 -0.89146683 6.44754321 -1.9375 8.625 C-2.50339844 9.81351563 -3.06929688 11.00203125 -3.65234375 12.2265625 C-4.09707031 13.14179688 -4.54179687 14.05703125 -5 15 C-5.66 15 -6.32 15 -7 15 C-7.0825 15.70125 -7.165 16.4025 -7.25 17.125 C-8.17341927 20.66477388 -9.93551432 22.99711174 -12 26 C-12.28875 26.78375 -12.5775 27.5675 -12.875 28.375 C-14.2684436 31.62636841 -16.24441182 34.08329145 -18.41015625 36.86328125 C-20.46869344 39.62991477 -22.19998227 42.54663594 -23.921875 45.53125 C-24.27765625 46.0159375 -24.6334375 46.500625 -25 47 C-25.66 47 -26.32 47 -27 47 C-27.226875 47.721875 -27.45375 48.44375 -27.6875 49.1875 C-29.25917787 52.55538115 -31.31957525 54.45032767 -34 57 C-34.556875 57.763125 -35.11375 58.52625 -35.6875 59.3125 C-36.120625 59.869375 -36.55375 60.42625 -37 61 C-37.66 61 -38.32 61 -39 61 C-39 61.66 -39 62.32 -39 63 C-40.49609375 64.4375 -40.49609375 64.4375 -42.4375 66 C-45.15188238 68.14525044 -45.15188238 68.14525044 -47 71 C-47.99 71.309375 -48.98 71.61875 -50 71.9375 C-50.99 72.288125 -51.98 72.63875 -53 73 C-53.33 73.99 -53.66 74.98 -54 76 C-59.7335898 80.16988349 -66.10577184 81.85096197 -73 83 C-72.67 56.93 -72.34 30.86 -72 4 C-63 7 -63 7 -61 8 C-61 8.66 -61 9.32 -61 10 C-59.41701974 10.4803318 -57.83360022 10.95921612 -56.25 11.4375 C-55.36828125 11.70433594 -54.4865625 11.97117188 -53.578125 12.24609375 C-38.89125444 16.54089075 -24.49242278 14.91486668 -11 8 C-9.700625 7.36191406 -9.700625 7.36191406 -8.375 6.7109375 C-6.57763714 5.81867522 -4.78773704 4.91139536 -3 4 C-2.34 4 -1.68 4 -1 4 C-0.67 2.68 -0.34 1.36 0 0 Z " fill="#AEDF43" transform="translate(255,201)"/>
<path d="M0 0 C9.65057304 -1.1201558 9.65057304 -1.1201558 15 0 C18.24128128 3.20902973 19.92072347 6.91524905 21.91015625 10.98388672 C23.95788811 14.77200717 26.5891551 18.13954011 29.1875 21.5625 C29.68725342 22.24054688 30.18700684 22.91859375 30.7019043 23.6171875 C33.49490391 27.33064443 36.25483644 30.19272237 40 33 C41.68732277 34.98260426 43.35366057 36.9832342 45 39 C46.64694485 40.68615782 48.31126121 42.35570171 50 44 C50.495 44.53625 50.99 45.0725 51.5 45.625 C53.02260651 47.11281309 53.02260651 47.11281309 55.1875 48.3125 C57.66619148 49.79971489 59.97750298 51.36282019 62.3125 53.0625 C63.35857422 53.82240234 63.35857422 53.82240234 64.42578125 54.59765625 C64.94527344 55.06042969 65.46476562 55.52320313 66 56 C66 56.66 66 57.32 66 58 C66.52207031 58.0928125 67.04414063 58.185625 67.58203125 58.28125 C70.87709303 59.26071909 73.67362777 60.85300151 76.6875 62.5 C77.84636719 63.1290625 79.00523437 63.758125 80.19921875 64.40625 C83 66 83 66 84 67 C84.08775605 69.14558827 84.10695219 71.29404421 84.09765625 73.44140625 C84.09282227 75.39916992 84.09282227 75.39916992 84.08789062 77.39648438 C84.07953401 78.7851569 84.07106905 80.17382877 84.0625 81.5625 C84.05748666 82.95507656 84.05292347 84.34765481 84.04882812 85.74023438 C84.03699434 89.1601987 84.0205088 92.58007844 84 96 C80.04 96 76.08 96 72 96 C72 88.08 72 80.16 72 72 C64.08 72 56.16 72 48 72 C48 64.08 48 56.16 48 48 C40.08 48 32.16 48 24 48 C24 40.08 24 32.16 24 24 C16.08 24 8.16 24 0 24 C0 16.08 0 8.16 0 0 Z " fill="#FDFDFB" transform="translate(96,216)"/>
<path d="M0 0 C2.8125 1.375 2.8125 1.375 5 3 C5.9075 3.33 6.815 3.66 7.75 4 C8.86375 4.495 8.86375 4.495 10 5 C10.33 5.99 10.66 6.98 11 8 C11.99 8 12.98 8 14 8 C14 8.99 14 9.98 14 11 C15.32 11.66 16.64 12.32 18 13 C18 14.32 18 15.64 18 17 C17.4225 17.12375 16.845 17.2475 16.25 17.375 C13.97664233 18.00648824 12.0746471 18.88858191 10 20 C10.2475 21.3303125 10.2475 21.3303125 10.5 22.6875 C12.43178923 37.02957159 12.43178923 37.02957159 9.953125 42.171875 C8.625 43.8125 8.625 43.8125 6 46 C5.34 46 4.68 46 4 46 C4 46.66 4 47.32 4 48 C-2.74722565 48.71023428 -2.74722565 48.71023428 -5.984375 46.875 C-11.55109444 42.30743533 -13.93040904 37.79212771 -14.6875 30.625 C-14.80340305 29.08417123 -14.91158724 27.54265031 -15 26 C-16.98 26 -18.96 26 -21 26 C-21.05386629 23.87527424 -21.09273071 21.75016348 -21.125 19.625 C-21.14820312 18.44164063 -21.17140625 17.25828125 -21.1953125 16.0390625 C-21 13 -21 13 -19 11 C-18.9175 10.236875 -18.835 9.47375 -18.75 8.6875 C-17.62765481 4.66576307 -15.33649976 3.45130594 -12 1 C-8.31937624 -0.84031188 -4.02658304 -0.36952819 0 0 Z " fill="#D7CB32" transform="translate(92,88)"/>
<path d="M0 0 C2 2 2 2 2 5 C2.59554687 5.08636719 3.19109375 5.17273438 3.8046875 5.26171875 C6.61288641 6.20611305 7.42641215 7.41580144 9.125 9.8125 C9.62257813 10.49957031 10.12015625 11.18664062 10.6328125 11.89453125 C14.98247102 18.59300537 15.16890871 25.39370419 15.125 33.1875 C15.13080078 34.23454102 15.13080078 34.23454102 15.13671875 35.30273438 C15.13029965 38.6759727 15.0496821 41.77597641 14 45 C13.34 45 12.68 45 12 45 C11.94392578 43.44152344 11.94392578 43.44152344 11.88671875 41.8515625 C11.53207428 33.83986525 10.89460661 26.57331038 8 19 C7.21238281 18.86464844 6.42476563 18.72929688 5.61328125 18.58984375 C2.74711691 17.94292175 1.75496796 17.30916837 0 15 C0 14.34 0 13.68 0 13 C-2.3994288 13.22937936 -4.79225539 13.48262386 -7.1875 13.75 C-7.86103516 13.811875 -8.53457031 13.87375 -9.22851562 13.9375 C-13.99165503 14.49513583 -16.47291142 15.82755469 -20 19 C-20.66 19 -21.32 19 -22 19 C-22 19.66 -22 20.32 -22 21 C-22.99 21.33 -23.98 21.66 -25 22 C-25.79317892 23.6855052 -26.57432113 25.37972323 -27.24609375 27.1171875 C-28 29 -28 29 -29.5625 31.8125 C-33.6677193 40.91537757 -33.53701028 51.17974435 -34 61 C-33.34 61 -32.68 61 -32 61 C-31.67128906 62.01320313 -31.67128906 62.01320313 -31.3359375 63.046875 C-29.18087645 69.10907925 -27.64428478 71.92129921 -22 75 C-22 75.66 -22 76.32 -22 77 C-21.34 77.33 -20.68 77.66 -20 78 C-29.00094473 77.80774681 -29.00094473 77.80774681 -32.9375 74.625 C-33.618125 73.75875 -34.29875 72.8925 -35 72 C-35.598125 71.443125 -36.19625 70.88625 -36.8125 70.3125 C-38 69 -38 69 -38 67 C-38.66 67 -39.32 67 -40 67 C-42.91579636 60.40474632 -43.3020682 53.97644844 -43.3125 46.875 C-43.31765625 46.0284082 -43.3228125 45.18181641 -43.328125 44.30957031 C-43.26904198 38.89714369 -42.50698111 34.19938501 -41 29 C-40.34 29 -39.68 29 -39 29 C-38.8453125 27.66582031 -38.8453125 27.66582031 -38.6875 26.3046875 C-36.60116163 16.27603827 -27.17835143 8.45223429 -19 3 C-13.13086869 1.49509454 -7.01358093 1.91242358 -1 2 C-0.67 1.34 -0.34 0.68 0 0 Z " fill="#D9D257" transform="translate(278,75)"/>
<path d="M0 0 C0.33 0.99 0.66 1.98 1 3 C0.34 3.66 -0.32 4.32 -1 5 C-1.24339551 7.89883083 -1.24339551 7.89883083 -1.125 11.125 C-1.10695313 12.22070312 -1.08890625 13.31640625 -1.0703125 14.4453125 C-1.04710938 15.28835937 -1.02390625 16.13140625 -1 17 C0.98 16.67 2.96 16.34 5 16 C5.01417969 16.7734375 5.02835938 17.546875 5.04296875 18.34375 C5.42688378 26.72762408 7.09294734 31.82349543 12.8125 37.9375 C16.14089382 39.55414843 19.32156058 39.69346338 23 40 C23 39.34 23 38.68 23 38 C24.65002828 36.64613064 26.3174387 35.31321858 28 34 C31.11397729 27.77204542 29.0577754 17.74331816 28 11 C28.66 11 29.32 11 30 11 C30.33 10.34 30.66 9.68 31 9 C31.66 9 32.32 9 33 9 C33.66 8.67 34.32 8.34 35 8 C37.78388975 9.70625501 38.85384206 10.47626739 39.75 13.6875 C39.8325 14.450625 39.915 15.21375 40 16 C40.66 16 41.32 16 42 16 C43.45045849 20.35137546 43.30591066 24.56510329 43.375 29.125 C43.43107422 30.49398437 43.43107422 30.49398437 43.48828125 31.890625 C43.5779189 38.8823614 41.80880649 43.21402252 38 49 C37.484375 49.969375 36.96875 50.93875 36.4375 51.9375 C34.7250811 54.39444885 33.79243977 54.94703683 31 56 C27.65234375 56.265625 27.65234375 56.265625 23.9375 56.25 C22.70902344 56.25515625 21.48054688 56.2603125 20.21484375 56.265625 C17 56 17 56 14 54 C13.01 54.495 13.01 54.495 12 55 C11.5875 54.2575 11.175 53.515 10.75 52.75 C9.11524431 49.96158523 9.11524431 49.96158523 6.875 47.875 C5 46 5 46 4 43 C3.0026631 41.99734397 2.00254776 40.99744573 1 40 C-3.49209588 30.11738907 -6.64344324 15.89554758 -3.109375 5.33984375 C-2 3 -2 3 0 0 Z " fill="#D6CA34" transform="translate(73,96)"/>
<path d="M0 0 C7.92 0 15.84 0 24 0 C24 7.26 24 14.52 24 22 C20.82375 22.804375 17.6475 23.60875 14.375 24.4375 C0.12774354 28.36033854 -9.86398354 35.09740236 -19.890625 45.91015625 C-22 48 -22 48 -24 48 C-24 40.08 -24 32.16 -24 24 C-16.08 24 -8.16 24 0 24 C0 16.08 0 8.16 0 0 Z " fill="#FDFEFD" transform="translate(120,0)"/>
<path d="M0 0 C0.33 0 0.66 0 1 0 C1.0751855 3.92853871 1.12908016 7.85678833 1.16479492 11.78588867 C1.1869747 13.76561236 1.22512997 15.74513664 1.26367188 17.72460938 C1.33697067 27.37561766 0.80274481 36.91652925 -4.9375 45.0625 C-5.66259766 46.13177734 -5.66259766 46.13177734 -6.40234375 47.22265625 C-8.1266895 49.1409382 -9.63581864 50.01449892 -12 51 C-11.34 51.66 -10.68 52.32 -10 53 C-10.66 53 -11.32 53 -12 53 C-12 59.27 -12 65.54 -12 72 C-19.92 72 -27.84 72 -36 72 C-36 64.08 -36 56.16 -36 48 C-28.08 48 -20.16 48 -12 48 C-12 40.08 -12 32.16 -12 24 C-8.04 24 -4.08 24 0 24 C0 16.08 0 8.16 0 0 Z " fill="#EDEAEA" transform="translate(180,288)"/>
<path d="M0 0 C0.33 0.99 0.66 1.98 1 3 C1.66 3.33 2.32 3.66 3 4 C2.67 4.66 2.34 5.32 2 6 C7.61 6 13.22 6 19 6 C19 13.92 19 21.84 19 30 C11.08 30 3.16 30 -5 30 C-5 37.92 -5 45.84 -5 54 C-8.02734375 54.22786458 -11.0546875 54.45572917 -14.08203125 54.68359375 C-17.05989905 54.90212461 -17.05989905 54.90212461 -20 56 C-20.33 56.66 -20.66 57.32 -21 58 C-21 56.68 -21 55.36 -21 54 C-20.34 54 -19.68 54 -19 54 C-18.87367188 53.42636719 -18.74734375 52.85273438 -18.6171875 52.26171875 C-17.79149082 49.23590623 -16.46683215 46.53788398 -15.1328125 43.70703125 C-14.19388106 41.46330888 -13.40591764 39.26177532 -12.65234375 36.953125 C-10.42446026 30.14359349 -7.8004621 23.48032071 -5.22851562 16.79492188 C-3.11750638 11.23722307 -1.28936445 5.80562477 0 0 Z " fill="#EDEEEC" transform="translate(269,162)"/>
<path d="M0 0 C2.32424152 3.48636228 3.22101885 6.95135341 4.3125 10.9375 C6.57826282 18.93706471 9.19514457 26.7661976 13.13671875 34.12109375 C14.35340987 36.76918618 14.13053913 39.12813917 14 42 C14.66 42 15.32 42 16 42 C16.83819158 43.62249941 17.6704116 45.24808497 18.5 46.875 C18.9640625 47.77992188 19.428125 48.68484375 19.90625 49.6171875 C21 52 21 52 21 54 C16.71 54 12.42 54 8 54 C8 46.08 8 38.16 8 30 C0.08 30 -7.84 30 -16 30 C-16 22.08 -16 14.16 -16 6 C-10.39 6 -4.78 6 1 6 C0.67 4.02 0.34 2.04 0 0 Z " fill="#EBEDEA" transform="translate(88,162)"/>
<path d="M0 0 C3.60513629 2.14774077 5.44680653 4.1478065 7 8 C7.265625 10.62109375 7.265625 10.62109375 7.25 13.4375 C7.25515625 14.36433594 7.2603125 15.29117188 7.265625 16.24609375 C6.98451512 19.16054176 6.21247903 21.34890497 5 24 C4.34 24 3.68 24 3 24 C2.7525 24.61875 2.505 25.2375 2.25 25.875 C0.69447068 28.51939985 -0.07621471 29.07669938 -3 30 C-7.2092486 30.69004075 -9.48380216 30.99937711 -13.07421875 28.6328125 C-17.08024347 24.7161717 -18.48476072 21.48178978 -18.6875 15.875 C-18.37240974 10.87136665 -17.48318993 7.76561073 -14 4 C-13.278125 3.21625 -12.55625 2.4325 -11.8125 1.625 C-7.85231146 -0.66310894 -4.47105478 -0.8114437 0 0 Z " fill="#12120F" transform="translate(275,106)"/>
<path d="M0 0 C4.29394202 1.7974641 8.02201159 4.7210863 10 9 C10.8122179 14.10722618 11.25848352 19.42288485 8.9375 24.17578125 C7.625 25.8125 7.625 25.8125 5 28 C4.34 28 3.68 28 3 28 C3 28.66 3 29.32 3 30 C-3.74722565 30.71023428 -3.74722565 30.71023428 -6.984375 28.875 C-11.33316785 25.30675971 -14.53918263 21.60216398 -15.27734375 15.83203125 C-15.52624019 9.88838431 -14.382376 5.64708445 -10.3125 1.125 C-6.90083532 -0.53472876 -3.679155 -0.52979832 0 0 Z " fill="#12110E" transform="translate(93,106)"/>
<path d="M0 0 C0.66 0.33 1.32 0.66 2 1 C3.66565749 1.15222973 5.33656496 1.24917215 7.0078125 1.31640625 C7.8961377 1.35451416 8.78446289 1.39262207 9.69970703 1.43188477 C10.83005371 1.47498779 11.96040039 1.51809082 13.125 1.5625 C16.71375 1.706875 20.3025 1.85125 24 2 C24 9.92 24 17.84 24 26 C16.08 26 8.16 26 0 26 C-0.33 18.74 -0.66 11.48 -1 4 C-2.65 5.65 -4.3 7.3 -6 9 C-6.66 8.67 -7.32 8.34 -8 8 C-7.0479279 6.99403703 -6.08812654 5.99538437 -5.125 5 C-4.59132812 4.443125 -4.05765625 3.88625 -3.5078125 3.3125 C-2 2 -2 2 0 2 C0 1.34 0 0.68 0 0 Z " fill="#EDEEEC" transform="translate(216,262)"/>
<path d="M0 0 C7.92 0 15.84 0 24 0 C24 7.92 24 15.84 24 24 C16.41 24.33 8.82 24.66 1 25 C-1.25 19.375 -1.25 19.375 -0.9765625 15.13671875 C-0.93096191 14.33709717 -0.88536133 13.53747559 -0.83837891 12.71362305 C-0.76796387 11.71500244 -0.69754883 10.71638184 -0.625 9.6875 C-0.315625 4.8921875 -0.315625 4.8921875 0 0 Z " fill="#FEFEFE" transform="translate(192,312)"/>
<path d="M0 0 C7.92 0 15.84 0 24 0 C24.22085864 4.12468439 24.42724924 8.24919998 24.625 12.375 C24.68945312 13.550625 24.75390625 14.72625 24.8203125 15.9375 C24.89765625 17.61972656 24.89765625 17.61972656 24.9765625 19.3359375 C25.02893066 20.37282715 25.08129883 21.4097168 25.13525391 22.47802734 C25 25 25 25 23 27 C23 26.01 23 25.02 23 24 C15.41 24 7.82 24 0 24 C0 16.08 0 8.16 0 0 Z " fill="#EDEEED" transform="translate(72,24)"/>
<path d="M0 0 C7.92 0 15.84 0 24 0 C24 7.92 24 15.84 24 24 C16.08 24 8.16 24 0 24 C0 16.08 0 8.16 0 0 Z " fill="#EEEEEE" transform="translate(336,336)"/>
<path d="M0 0 C7.92 0 15.84 0 24 0 C24 7.92 24 15.84 24 24 C16.08 24 8.16 24 0 24 C0 16.08 0 8.16 0 0 Z " fill="#FFFFFF" transform="translate(312,336)"/>
<path d="M0 0 C7.92 0 15.84 0 24 0 C24 7.92 24 15.84 24 24 C16.08 24 8.16 24 0 24 C0 16.08 0 8.16 0 0 Z " fill="#EEEEEE" transform="translate(288,336)"/>
<path d="M0 0 C7.92 0 15.84 0 24 0 C24 7.92 24 15.84 24 24 C16.08 24 8.16 24 0 24 C0 16.08 0 8.16 0 0 Z " fill="#FFFFFF" transform="translate(264,336)"/>
<path d="M0 0 C7.92 0 15.84 0 24 0 C24 7.92 24 15.84 24 24 C16.08 24 8.16 24 0 24 C0 16.08 0 8.16 0 0 Z " fill="#FFFFFF" transform="translate(216,336)"/>
<path d="M0 0 C7.92 0 15.84 0 24 0 C24 7.92 24 15.84 24 24 C16.08 24 8.16 24 0 24 C0 16.08 0 8.16 0 0 Z " fill="#FFFFFF" transform="translate(120,336)"/>
<path d="M0 0 C7.92 0 15.84 0 24 0 C24 7.92 24 15.84 24 24 C16.08 24 8.16 24 0 24 C0 16.08 0 8.16 0 0 Z " fill="#EEEEEE" transform="translate(96,336)"/>
<path d="M0 0 C7.92 0 15.84 0 24 0 C24 7.92 24 15.84 24 24 C16.08 24 8.16 24 0 24 C0 16.08 0 8.16 0 0 Z " fill="#FFFFFF" transform="translate(72,336)"/>
<path d="M0 0 C7.92 0 15.84 0 24 0 C24 7.92 24 15.84 24 24 C16.08 24 8.16 24 0 24 C0 16.08 0 8.16 0 0 Z " fill="#EEEEEE" transform="translate(48,336)"/>
<path d="M0 0 C7.92 0 15.84 0 24 0 C24 7.92 24 15.84 24 24 C16.08 24 8.16 24 0 24 C0 16.08 0 8.16 0 0 Z " fill="#FFFFFF" transform="translate(24,336)"/>
<path d="M0 0 C7.92 0 15.84 0 24 0 C24 7.92 24 15.84 24 24 C16.08 24 8.16 24 0 24 C0 16.08 0 8.16 0 0 Z " fill="#EEEEEE" transform="translate(0,336)"/>
<path d="M0 0 C7.92 0 15.84 0 24 0 C24 7.92 24 15.84 24 24 C16.08 24 8.16 24 0 24 C0 16.08 0 8.16 0 0 Z " fill="#FFFFFF" transform="translate(336,312)"/>
<path d="M0 0 C7.92 0 15.84 0 24 0 C24 7.92 24 15.84 24 24 C16.08 24 8.16 24 0 24 C0 16.08 0 8.16 0 0 Z " fill="#EEEEEE" transform="translate(312,312)"/>
<path d="M0 0 C7.92 0 15.84 0 24 0 C24 7.92 24 15.84 24 24 C16.08 24 8.16 24 0 24 C0 16.08 0 8.16 0 0 Z " fill="#FFFFFF" transform="translate(288,312)"/>
<path d="M0 0 C7.92 0 15.84 0 24 0 C24 7.92 24 15.84 24 24 C16.08 24 8.16 24 0 24 C0 16.08 0 8.16 0 0 Z " fill="#EEEEEE" transform="translate(264,312)"/>
<path d="M0 0 C7.92 0 15.84 0 24 0 C24 7.92 24 15.84 24 24 C16.08 24 8.16 24 0 24 C0 16.08 0 8.16 0 0 Z " fill="#FFFFFF" transform="translate(240,312)"/>
<path d="M0 0 C7.92 0 15.84 0 24 0 C24 7.92 24 15.84 24 24 C16.08 24 8.16 24 0 24 C0 16.08 0 8.16 0 0 Z " fill="#EEEEEE" transform="translate(216,312)"/>
<path d="M0 0 C7.92 0 15.84 0 24 0 C24 7.92 24 15.84 24 24 C16.08 24 8.16 24 0 24 C0 16.08 0 8.16 0 0 Z " fill="#FEFEFE" transform="translate(144,312)"/>
<path d="M0 0 C7.92 0 15.84 0 24 0 C24 7.92 24 15.84 24 24 C16.08 24 8.16 24 0 24 C0 16.08 0 8.16 0 0 Z " fill="#EEEEEE" transform="translate(120,312)"/>
<path d="M0 0 C7.92 0 15.84 0 24 0 C24 7.92 24 15.84 24 24 C16.08 24 8.16 24 0 24 C0 16.08 0 8.16 0 0 Z " fill="#FFFFFF" transform="translate(96,312)"/>
<path d="M0 0 C7.92 0 15.84 0 24 0 C24 7.92 24 15.84 24 24 C16.08 24 8.16 24 0 24 C0 16.08 0 8.16 0 0 Z " fill="#EEEEEE" transform="translate(72,312)"/>
<path d="M0 0 C7.92 0 15.84 0 24 0 C24 7.92 24 15.84 24 24 C16.08 24 8.16 24 0 24 C0 16.08 0 8.16 0 0 Z " fill="#FFFFFF" transform="translate(48,312)"/>
<path d="M0 0 C7.92 0 15.84 0 24 0 C24 7.92 24 15.84 24 24 C16.08 24 8.16 24 0 24 C0 16.08 0 8.16 0 0 Z " fill="#EEEEEE" transform="translate(24,312)"/>
<path d="M0 0 C7.92 0 15.84 0 24 0 C24 7.92 24 15.84 24 24 C16.08 24 8.16 24 0 24 C0 16.08 0 8.16 0 0 Z " fill="#FFFFFF" transform="translate(0,312)"/>
<path d="M0 0 C7.92 0 15.84 0 24 0 C24 7.92 24 15.84 24 24 C16.08 24 8.16 24 0 24 C0 16.08 0 8.16 0 0 Z " fill="#EEEEEE" transform="translate(336,288)"/>
<path d="M0 0 C7.92 0 15.84 0 24 0 C24 7.92 24 15.84 24 24 C16.08 24 8.16 24 0 24 C0 16.08 0 8.16 0 0 Z " fill="#FFFFFF" transform="translate(312,288)"/>
<path d="M0 0 C7.92 0 15.84 0 24 0 C24 7.92 24 15.84 24 24 C16.08 24 8.16 24 0 24 C0 16.08 0 8.16 0 0 Z " fill="#EEEEEE" transform="translate(288,288)"/>
<path d="M0 0 C7.92 0 15.84 0 24 0 C24 7.92 24 15.84 24 24 C16.08 24 8.16 24 0 24 C0 16.08 0 8.16 0 0 Z " fill="#FFFFFF" transform="translate(264,288)"/>
<path d="M0 0 C7.92 0 15.84 0 24 0 C24 7.92 24 15.84 24 24 C16.08 24 8.16 24 0 24 C0 16.08 0 8.16 0 0 Z " fill="#EEEEEE" transform="translate(240,288)"/>
<path d="M0 0 C7.92 0 15.84 0 24 0 C24 7.92 24 15.84 24 24 C16.08 24 8.16 24 0 24 C0 16.08 0 8.16 0 0 Z " fill="#FFFFFF" transform="translate(216,288)"/>
<path d="M0 0 C7.92 0 15.84 0 24 0 C24 7.92 24 15.84 24 24 C16.08 24 8.16 24 0 24 C0 16.08 0 8.16 0 0 Z " fill="#EEEEEE" transform="translate(144,288)"/>
<path d="M0 0 C7.92 0 15.84 0 24 0 C24 7.92 24 15.84 24 24 C16.08 24 8.16 24 0 24 C0 16.08 0 8.16 0 0 Z " fill="#FFFFFF" transform="translate(120,288)"/>
<path d="M0 0 C7.92 0 15.84 0 24 0 C24 7.92 24 15.84 24 24 C16.08 24 8.16 24 0 24 C0 16.08 0 8.16 0 0 Z " fill="#EEEEEE" transform="translate(96,288)"/>
<path d="M0 0 C7.92 0 15.84 0 24 0 C24 7.92 24 15.84 24 24 C16.08 24 8.16 24 0 24 C0 16.08 0 8.16 0 0 Z " fill="#FFFFFF" transform="translate(72,288)"/>
<path d="M0 0 C7.92 0 15.84 0 24 0 C24 7.92 24 15.84 24 24 C16.08 24 8.16 24 0 24 C0 16.08 0 8.16 0 0 Z " fill="#EEEEEE" transform="translate(48,288)"/>
<path d="M0 0 C7.92 0 15.84 0 24 0 C24 7.92 24 15.84 24 24 C16.08 24 8.16 24 0 24 C0 16.08 0 8.16 0 0 Z " fill="#FFFFFF" transform="translate(24,288)"/>
<path d="M0 0 C7.92 0 15.84 0 24 0 C24 7.92 24 15.84 24 24 C16.08 24 8.16 24 0 24 C0 16.08 0 8.16 0 0 Z " fill="#EEEEEE" transform="translate(0,288)"/>
<path d="M0 0 C7.92 0 15.84 0 24 0 C24 7.92 24 15.84 24 24 C16.08 24 8.16 24 0 24 C0 16.08 0 8.16 0 0 Z " fill="#FFFFFF" transform="translate(336,264)"/>
<path d="M0 0 C7.92 0 15.84 0 24 0 C24 7.92 24 15.84 24 24 C16.08 24 8.16 24 0 24 C0 16.08 0 8.16 0 0 Z " fill="#EEEEEE" transform="translate(312,264)"/>
<path d="M0 0 C7.92 0 15.84 0 24 0 C24 7.92 24 15.84 24 24 C16.08 24 8.16 24 0 24 C0 16.08 0 8.16 0 0 Z " fill="#FFFFFF" transform="translate(288,264)"/>
<path d="M0 0 C7.92 0 15.84 0 24 0 C24 7.92 24 15.84 24 24 C16.08 24 8.16 24 0 24 C0 16.08 0 8.16 0 0 Z " fill="#EEEEEE" transform="translate(264,264)"/>
<path d="M0 0 C7.92 0 15.84 0 24 0 C24 7.92 24 15.84 24 24 C16.08 24 8.16 24 0 24 C0 16.08 0 8.16 0 0 Z " fill="#FFFFFF" transform="translate(240,264)"/>
<path d="M0 0 C7.92 0 15.84 0 24 0 C24 7.92 24 15.84 24 24 C16.08 24 8.16 24 0 24 C0 16.08 0 8.16 0 0 Z " fill="#EEEDED" transform="translate(120,264)"/>
<path d="M0 0 C7.92 0 15.84 0 24 0 C24 7.92 24 15.84 24 24 C16.08 24 8.16 24 0 24 C0 16.08 0 8.16 0 0 Z " fill="#FFFFFF" transform="translate(96,264)"/>
<path d="M0 0 C7.92 0 15.84 0 24 0 C24 7.92 24 15.84 24 24 C16.08 24 8.16 24 0 24 C0 16.08 0 8.16 0 0 Z " fill="#EEEEEE" transform="translate(72,264)"/>
<path d="M0 0 C7.92 0 15.84 0 24 0 C24 7.92 24 15.84 24 24 C16.08 24 8.16 24 0 24 C0 16.08 0 8.16 0 0 Z " fill="#FFFFFF" transform="translate(48,264)"/>
<path d="M0 0 C7.92 0 15.84 0 24 0 C24 7.92 24 15.84 24 24 C16.08 24 8.16 24 0 24 C0 16.08 0 8.16 0 0 Z " fill="#EEEEEE" transform="translate(24,264)"/>
<path d="M0 0 C7.92 0 15.84 0 24 0 C24 7.92 24 15.84 24 24 C16.08 24 8.16 24 0 24 C0 16.08 0 8.16 0 0 Z " fill="#FFFFFF" transform="translate(0,264)"/>
<path d="M0 0 C7.92 0 15.84 0 24 0 C24 7.92 24 15.84 24 24 C16.08 24 8.16 24 0 24 C0 16.08 0 8.16 0 0 Z " fill="#EEEEEE" transform="translate(336,240)"/>
<path d="M0 0 C7.92 0 15.84 0 24 0 C24 7.92 24 15.84 24 24 C16.08 24 8.16 24 0 24 C0 16.08 0 8.16 0 0 Z " fill="#FFFFFF" transform="translate(312,240)"/>
<path d="M0 0 C7.92 0 15.84 0 24 0 C24 7.92 24 15.84 24 24 C16.08 24 8.16 24 0 24 C0 16.08 0 8.16 0 0 Z " fill="#EEEEEE" transform="translate(288,240)"/>
<path d="M0 0 C7.92 0 15.84 0 24 0 C24 7.92 24 15.84 24 24 C16.08 24 8.16 24 0 24 C0 16.08 0 8.16 0 0 Z " fill="#FFFFFF" transform="translate(264,240)"/>
<path d="M0 0 C7.92 0 15.84 0 24 0 C24 7.92 24 15.84 24 24 C16.08 24 8.16 24 0 24 C0 16.08 0 8.16 0 0 Z " fill="#EEEEED" transform="translate(240,240)"/>
<path d="M0 0 C7.92 0 15.84 0 24 0 C24 7.92 24 15.84 24 24 C16.08 24 8.16 24 0 24 C0 16.08 0 8.16 0 0 Z " fill="#EEEDEE" transform="translate(96,240)"/>
<path d="M0 0 C7.92 0 15.84 0 24 0 C24 7.92 24 15.84 24 24 C16.08 24 8.16 24 0 24 C0 16.08 0 8.16 0 0 Z " fill="#FFFFFF" transform="translate(72,240)"/>
<path d="M0 0 C7.92 0 15.84 0 24 0 C24 7.92 24 15.84 24 24 C16.08 24 8.16 24 0 24 C0 16.08 0 8.16 0 0 Z " fill="#EEEEEE" transform="translate(48,240)"/>
<path d="M0 0 C7.92 0 15.84 0 24 0 C24 7.92 24 15.84 24 24 C16.08 24 8.16 24 0 24 C0 16.08 0 8.16 0 0 Z " fill="#FFFFFF" transform="translate(24,240)"/>
<path d="M0 0 C7.92 0 15.84 0 24 0 C24 7.92 24 15.84 24 24 C16.08 24 8.16 24 0 24 C0 16.08 0 8.16 0 0 Z " fill="#EEEEEE" transform="translate(0,240)"/>
<path d="M0 0 C7.92 0 15.84 0 24 0 C24 7.92 24 15.84 24 24 C16.08 24 8.16 24 0 24 C0 16.08 0 8.16 0 0 Z " fill="#FFFFFF" transform="translate(336,216)"/>
<path d="M0 0 C7.92 0 15.84 0 24 0 C24 7.92 24 15.84 24 24 C16.08 24 8.16 24 0 24 C0 16.08 0 8.16 0 0 Z " fill="#EEEEEE" transform="translate(312,216)"/>
<path d="M0 0 C7.92 0 15.84 0 24 0 C24 7.92 24 15.84 24 24 C16.08 24 8.16 24 0 24 C0 16.08 0 8.16 0 0 Z " fill="#FFFFFF" transform="translate(288,216)"/>
<path d="M0 0 C7.92 0 15.84 0 24 0 C24 7.92 24 15.84 24 24 C16.08 24 8.16 24 0 24 C0 16.08 0 8.16 0 0 Z " fill="#EEEEEE" transform="translate(264,216)"/>
<path d="M0 0 C7.92 0 15.84 0 24 0 C24 7.92 24 15.84 24 24 C16.08 24 8.16 24 0 24 C0 16.08 0 8.16 0 0 Z " fill="#EEEEEE" transform="translate(72,216)"/>
<path d="M0 0 C7.92 0 15.84 0 24 0 C24 7.92 24 15.84 24 24 C16.08 24 8.16 24 0 24 C0 16.08 0 8.16 0 0 Z " fill="#FFFFFF" transform="translate(48,216)"/>
<path d="M0 0 C7.92 0 15.84 0 24 0 C24 7.92 24 15.84 24 24 C16.08 24 8.16 24 0 24 C0 16.08 0 8.16 0 0 Z " fill="#EEEEEE" transform="translate(24,216)"/>
<path d="M0 0 C7.92 0 15.84 0 24 0 C24 7.92 24 15.84 24 24 C16.08 24 8.16 24 0 24 C0 16.08 0 8.16 0 0 Z " fill="#FFFFFF" transform="translate(0,216)"/>
<path d="M0 0 C7.92 0 15.84 0 24 0 C24 7.92 24 15.84 24 24 C16.08 24 8.16 24 0 24 C0 16.08 0 8.16 0 0 Z " fill="#EEEEEE" transform="translate(336,192)"/>
<path d="M0 0 C7.92 0 15.84 0 24 0 C24 7.92 24 15.84 24 24 C16.08 24 8.16 24 0 24 C0 16.08 0 8.16 0 0 Z " fill="#FFFFFF" transform="translate(312,192)"/>
<path d="M0 0 C7.92 0 15.84 0 24 0 C24 7.92 24 15.84 24 24 C16.08 24 8.16 24 0 24 C0 16.08 0 8.16 0 0 Z " fill="#FEFEFE" transform="translate(264,192)"/>
<path d="M0 0 C7.92 0 15.84 0 24 0 C24 7.92 24 15.84 24 24 C16.08 24 8.16 24 0 24 C0 16.08 0 8.16 0 0 Z " fill="#FFFEFE" transform="translate(72,192)"/>
<path d="M0 0 C7.92 0 15.84 0 24 0 C24 7.92 24 15.84 24 24 C16.08 24 8.16 24 0 24 C0 16.08 0 8.16 0 0 Z " fill="#EEEEEE" transform="translate(48,192)"/>
<path d="M0 0 C7.92 0 15.84 0 24 0 C24 7.92 24 15.84 24 24 C16.08 24 8.16 24 0 24 C0 16.08 0 8.16 0 0 Z " fill="#FFFFFF" transform="translate(24,192)"/>
<path d="M0 0 C7.92 0 15.84 0 24 0 C24 7.92 24 15.84 24 24 C16.08 24 8.16 24 0 24 C0 16.08 0 8.16 0 0 Z " fill="#EEEEEE" transform="translate(0,192)"/>
<path d="M0 0 C7.92 0 15.84 0 24 0 C24 7.92 24 15.84 24 24 C16.08 24 8.16 24 0 24 C0 16.08 0 8.16 0 0 Z " fill="#FFFFFF" transform="translate(336,168)"/>
<path d="M0 0 C7.92 0 15.84 0 24 0 C24 7.92 24 15.84 24 24 C16.08 24 8.16 24 0 24 C0 16.08 0 8.16 0 0 Z " fill="#EEEEEE" transform="translate(312,168)"/>
<path d="M0 0 C7.92 0 15.84 0 24 0 C24 7.92 24 15.84 24 24 C16.08 24 8.16 24 0 24 C0 16.08 0 8.16 0 0 Z " fill="#FFFFFF" transform="translate(288,168)"/>
<path d="M0 0 C7.92 0 15.84 0 24 0 C24 7.92 24 15.84 24 24 C16.08 24 8.16 24 0 24 C0 16.08 0 8.16 0 0 Z " fill="#FFFFFF" transform="translate(48,168)"/>
<path d="M0 0 C7.92 0 15.84 0 24 0 C24 7.92 24 15.84 24 24 C16.08 24 8.16 24 0 24 C0 16.08 0 8.16 0 0 Z " fill="#EEEEEE" transform="translate(24,168)"/>
<path d="M0 0 C7.92 0 15.84 0 24 0 C24 7.92 24 15.84 24 24 C16.08 24 8.16 24 0 24 C0 16.08 0 8.16 0 0 Z " fill="#FFFFFF" transform="translate(0,168)"/>
<path d="M0 0 C7.92 0 15.84 0 24 0 C24 7.92 24 15.84 24 24 C16.08 24 8.16 24 0 24 C0 16.08 0 8.16 0 0 Z " fill="#EEEEEE" transform="translate(336,144)"/>
<path d="M0 0 C7.92 0 15.84 0 24 0 C24 7.92 24 15.84 24 24 C16.08 24 8.16 24 0 24 C0 16.08 0 8.16 0 0 Z " fill="#FFFFFF" transform="translate(312,144)"/>
<path d="M0 0 C7.92 0 15.84 0 24 0 C24 7.92 24 15.84 24 24 C16.08 24 8.16 24 0 24 C0 16.08 0 8.16 0 0 Z " fill="#EDEEEE" transform="translate(288,144)"/>
<path d="M0 0 C7.92 0 15.84 0 24 0 C24 7.92 24 15.84 24 24 C16.08 24 8.16 24 0 24 C0 16.08 0 8.16 0 0 Z " fill="#EEEEEE" transform="translate(48,144)"/>
<path d="M0 0 C7.92 0 15.84 0 24 0 C24 7.92 24 15.84 24 24 C16.08 24 8.16 24 0 24 C0 16.08 0 8.16 0 0 Z " fill="#FFFFFF" transform="translate(24,144)"/>
<path d="M0 0 C7.92 0 15.84 0 24 0 C24 7.92 24 15.84 24 24 C16.08 24 8.16 24 0 24 C0 16.08 0 8.16 0 0 Z " fill="#EEEEEE" transform="translate(0,144)"/>
<path d="M0 0 C7.92 0 15.84 0 24 0 C24 7.92 24 15.84 24 24 C16.08 24 8.16 24 0 24 C0 16.08 0 8.16 0 0 Z " fill="#FFFFFF" transform="translate(336,120)"/>
<path d="M0 0 C7.92 0 15.84 0 24 0 C24 7.92 24 15.84 24 24 C16.08 24 8.16 24 0 24 C0 16.08 0 8.16 0 0 Z " fill="#EEEEEE" transform="translate(312,120)"/>
<path d="M0 0 C7.92 0 15.84 0 24 0 C24 7.92 24 15.84 24 24 C16.08 24 8.16 24 0 24 C0 16.08 0 8.16 0 0 Z " fill="#EEEEEE" transform="translate(24,120)"/>
<path d="M0 0 C7.92 0 15.84 0 24 0 C24 7.92 24 15.84 24 24 C16.08 24 8.16 24 0 24 C0 16.08 0 8.16 0 0 Z " fill="#FFFFFF" transform="translate(0,120)"/>
<path d="M0 0 C7.92 0 15.84 0 24 0 C24 7.92 24 15.84 24 24 C16.08 24 8.16 24 0 24 C0 16.08 0 8.16 0 0 Z " fill="#EEEEEE" transform="translate(336,96)"/>
<path d="M0 0 C7.92 0 15.84 0 24 0 C24 7.92 24 15.84 24 24 C16.08 24 8.16 24 0 24 C0 16.08 0 8.16 0 0 Z " fill="#FFFFFF" transform="translate(312,96)"/>
<path d="M0 0 C7.92 0 15.84 0 24 0 C24 7.92 24 15.84 24 24 C16.08 24 8.16 24 0 24 C0 16.08 0 8.16 0 0 Z " fill="#FFFFFF" transform="translate(24,96)"/>
<path d="M0 0 C7.92 0 15.84 0 24 0 C24 7.92 24 15.84 24 24 C16.08 24 8.16 24 0 24 C0 16.08 0 8.16 0 0 Z " fill="#EEEEEE" transform="translate(0,96)"/>
<path d="M0 0 C7.92 0 15.84 0 24 0 C24 7.92 24 15.84 24 24 C16.08 24 8.16 24 0 24 C0 16.08 0 8.16 0 0 Z " fill="#FFFFFF" transform="translate(336,72)"/>
<path d="M0 0 C7.92 0 15.84 0 24 0 C24 7.92 24 15.84 24 24 C16.08 24 8.16 24 0 24 C0 16.08 0 8.16 0 0 Z " fill="#EEEEEE" transform="translate(312,72)"/>
<path d="M0 0 C7.92 0 15.84 0 24 0 C24 7.92 24 15.84 24 24 C16.08 24 8.16 24 0 24 C0 16.08 0 8.16 0 0 Z " fill="#EEEEEE" transform="translate(24,72)"/>
<path d="M0 0 C7.92 0 15.84 0 24 0 C24 7.92 24 15.84 24 24 C16.08 24 8.16 24 0 24 C0 16.08 0 8.16 0 0 Z " fill="#FFFFFF" transform="translate(0,72)"/>
<path d="M0 0 C7.92 0 15.84 0 24 0 C24 7.92 24 15.84 24 24 C16.08 24 8.16 24 0 24 C0 16.08 0 8.16 0 0 Z " fill="#EEEEEE" transform="translate(336,48)"/>
<path d="M0 0 C7.92 0 15.84 0 24 0 C24 7.92 24 15.84 24 24 C16.08 24 8.16 24 0 24 C0 16.08 0 8.16 0 0 Z " fill="#FFFFFF" transform="translate(312,48)"/>
<path d="M0 0 C7.92 0 15.84 0 24 0 C24 7.92 24 15.84 24 24 C16.08 24 8.16 24 0 24 C0 16.08 0 8.16 0 0 Z " fill="#EDEEED" transform="translate(288,48)"/>
<path d="M0 0 C7.92 0 15.84 0 24 0 C24 7.92 24 15.84 24 24 C16.08 24 8.16 24 0 24 C0 16.08 0 8.16 0 0 Z " fill="#EEEEEE" transform="translate(48,48)"/>
<path d="M0 0 C7.92 0 15.84 0 24 0 C24 7.92 24 15.84 24 24 C16.08 24 8.16 24 0 24 C0 16.08 0 8.16 0 0 Z " fill="#FFFFFF" transform="translate(24,48)"/>
<path d="M0 0 C7.92 0 15.84 0 24 0 C24 7.92 24 15.84 24 24 C16.08 24 8.16 24 0 24 C0 16.08 0 8.16 0 0 Z " fill="#EEEEEE" transform="translate(0,48)"/>
<path d="M0 0 C7.92 0 15.84 0 24 0 C24 7.92 24 15.84 24 24 C16.08 24 8.16 24 0 24 C0 16.08 0 8.16 0 0 Z " fill="#FFFFFF" transform="translate(336,24)"/>
<path d="M0 0 C7.92 0 15.84 0 24 0 C24 7.92 24 15.84 24 24 C16.08 24 8.16 24 0 24 C0 16.08 0 8.16 0 0 Z " fill="#EEEEEE" transform="translate(312,24)"/>
<path d="M0 0 C7.92 0 15.84 0 24 0 C24 7.92 24 15.84 24 24 C16.08 24 8.16 24 0 24 C0 16.08 0 8.16 0 0 Z " fill="#FFFFFF" transform="translate(288,24)"/>
<path d="M0 0 C7.92 0 15.84 0 24 0 C24 7.92 24 15.84 24 24 C16.08 24 8.16 24 0 24 C0 16.08 0 8.16 0 0 Z " fill="#EDEEED" transform="translate(264,24)"/>
<path d="M0 0 C7.92 0 15.84 0 24 0 C24 7.92 24 15.84 24 24 C16.08 24 8.16 24 0 24 C0 16.08 0 8.16 0 0 Z " fill="#FFFFFF" transform="translate(48,24)"/>
<path d="M0 0 C7.92 0 15.84 0 24 0 C24 7.92 24 15.84 24 24 C16.08 24 8.16 24 0 24 C0 16.08 0 8.16 0 0 Z " fill="#EEEEEE" transform="translate(24,24)"/>
<path d="M0 0 C7.92 0 15.84 0 24 0 C24 7.92 24 15.84 24 24 C16.08 24 8.16 24 0 24 C0 16.08 0 8.16 0 0 Z " fill="#FFFFFF" transform="translate(0,24)"/>
<path d="M0 0 C7.92 0 15.84 0 24 0 C24 7.92 24 15.84 24 24 C16.08 24 8.16 24 0 24 C0 16.08 0 8.16 0 0 Z " fill="#EEEEEE" transform="translate(336,0)"/>
<path d="M0 0 C7.92 0 15.84 0 24 0 C24 7.92 24 15.84 24 24 C16.08 24 8.16 24 0 24 C0 16.08 0 8.16 0 0 Z " fill="#FFFFFF" transform="translate(312,0)"/>
<path d="M0 0 C7.92 0 15.84 0 24 0 C24 7.92 24 15.84 24 24 C16.08 24 8.16 24 0 24 C0 16.08 0 8.16 0 0 Z " fill="#EEEEEE" transform="translate(288,0)"/>
<path d="M0 0 C7.92 0 15.84 0 24 0 C24 7.92 24 15.84 24 24 C16.08 24 8.16 24 0 24 C0 16.08 0 8.16 0 0 Z " fill="#FFFFFF" transform="translate(264,0)"/>
<path d="M0 0 C7.92 0 15.84 0 24 0 C24 7.92 24 15.84 24 24 C16.08 24 8.16 24 0 24 C0 16.08 0 8.16 0 0 Z " fill="#EEEEEE" transform="translate(240,0)"/>
<path d="M0 0 C7.92 0 15.84 0 24 0 C24 7.92 24 15.84 24 24 C16.08 24 8.16 24 0 24 C0 16.08 0 8.16 0 0 Z " fill="#EEEEEE" transform="translate(96,0)"/>
<path d="M0 0 C7.92 0 15.84 0 24 0 C24 7.92 24 15.84 24 24 C16.08 24 8.16 24 0 24 C0 16.08 0 8.16 0 0 Z " fill="#FFFFFF" transform="translate(72,0)"/>
<path d="M0 0 C7.92 0 15.84 0 24 0 C24 7.92 24 15.84 24 24 C16.08 24 8.16 24 0 24 C0 16.08 0 8.16 0 0 Z " fill="#EEEEEE" transform="translate(48,0)"/>
<path d="M0 0 C7.92 0 15.84 0 24 0 C24 7.92 24 15.84 24 24 C16.08 24 8.16 24 0 24 C0 16.08 0 8.16 0 0 Z " fill="#EEEEEE" transform="translate(0,0)"/>
<path d="M0 0 C0.82741699 0.01047363 1.65483398 0.02094727 2.50732422 0.03173828 C3.71799561 0.03923096 3.71799561 0.03923096 4.953125 0.046875 C6.49202393 0.07418701 6.49202393 0.07418701 8.06201172 0.10205078 C12.95013672 0.16392578 12.95013672 0.16392578 17.93701172 0.22705078 C17.93701172 8.14705078 17.93701172 16.06705078 17.93701172 24.22705078 C10.01701172 24.22705078 2.09701172 24.22705078 -6.06298828 24.22705078 C-6.06298828 17.29705078 -6.06298828 10.36705078 -6.06298828 3.22705078 C-3.75298828 3.55705078 -1.44298828 3.88705078 0.93701172 4.22705078 C-1.53798828 3.23705078 -1.53798828 3.23705078 -4.06298828 2.22705078 C-2.06298828 0.22705078 -2.06298828 0.22705078 0 0 Z " fill="#EDEDED" transform="translate(198.06298828125,335.77294921875)"/>
<path d="M0 0 C7.92 0 15.84 0 24 0 C24 7.92 24 15.84 24 24 C17.4 24 10.8 24 4 24 C0.64440691 17.28881383 -0.57927777 14.39443541 -0.25 7.5 C-0.1675 5.025 -0.085 2.55 0 0 Z " fill="#FEFEFE" transform="translate(288,72)"/>
<path d="M0 0 C6.6 0 13.2 0 20 0 C20.33 7.92 20.66 15.84 21 24 C14.07 24 7.14 24 0 24 C0 16.08 0 8.16 0 0 Z " fill="#EDEDEA" transform="translate(48,96)"/>
<path d="M0 0 C7.92 0 15.84 0 24 0 C24 6.93 24 13.86 24 21 C15 21 15 21 11.71875 20.34375 C11.08904297 20.22193359 10.45933594 20.10011719 9.81054688 19.97460938 C9.04806641 19.81798828 8.28558594 19.66136719 7.5 19.5 C5.025 19.005 2.55 18.51 0 18 C0 12.06 0 6.12 0 0 Z " fill="#ECEDEC" transform="translate(192,0)"/>
<path d="M0 0 C6.6 0 13.2 0 20 0 C20 7.92 20 15.84 20 24 C13.4 24 6.8 24 0 24 C0 16.08 0 8.16 0 0 Z " fill="#EEEEEB" transform="translate(292,96)"/>
<path d="M0 0 C7.92 0 15.84 0 24 0 C24 5.61 24 11.22 24 17 C16.08 17 8.16 17 0 17 C0 11.39 0 5.78 0 0 Z " fill="#FEFEFE" transform="translate(168,0)"/>
<path d="M0 0 C0.33 0 0.66 0 1 0 C1 10.23 1 20.46 1 31 C-6.59 31 -14.18 31 -22 31 C-19.63414634 25.08536585 -19.63414634 25.08536585 -17 23 C-16.34 23 -15.68 23 -15 23 C-14.71125 22.236875 -14.4225 21.47375 -14.125 20.6875 C-13 18 -13 18 -11 15 C-10.34 15 -9.68 15 -9 15 C-8.74347656 14.28457031 -8.48695313 13.56914062 -8.22265625 12.83203125 C-6.91928089 9.81303082 -5.33862527 7.36653874 -3.4375 4.6875 C-2.81746094 3.80449219 -2.19742188 2.92148438 -1.55859375 2.01171875 C-0.78708984 1.01591797 -0.78708984 1.01591797 0 0 Z " fill="#FBFDF6" transform="translate(239,233)"/>
<path d="M0 0 C2.31 0 4.62 0 7 0 C6.9278125 0.66 6.855625 1.32 6.78125 2 C6.0525888 9.77238615 5.86005284 17.50907961 5.8125 25.3125 C5.79316406 26.85067383 5.79316406 26.85067383 5.7734375 28.41992188 C5.7604861 38.38602569 7.30203479 46.26432187 14 54 C17.15058997 56.08302774 17.15058997 56.08302774 20 57 C20 57.33 20 57.66 20 58 C15.51139866 58.39605306 12.80548925 57.37843078 9 55 C7.01571801 53.0988293 5.60877211 51.27120769 4 49 C4 48.01 4 47.02 4 46 C3.2575 46.7425 2.515 47.485 1.75 48.25 C0.8425 49.1575 -0.065 50.065 -1 51 C-1.680625 51.721875 -2.36125 52.44375 -3.0625 53.1875 C-6.41322287 56.3220472 -8.70552822 57.10899834 -13.25 57.125 C-14.4875 57.08375 -15.725 57.0425 -17 57 C-17 56.67 -17 56.34 -17 56 C-16.12988281 55.84917969 -16.12988281 55.84917969 -15.2421875 55.6953125 C-10.07438896 54.45026533 -7.41816074 52.93838837 -4.5625 48.375 C1.07448537 38.4500514 0.24584454 27.44461381 0.125 16.4375 C0.11495088 14.8405004 0.10582844 13.24349468 0.09765625 11.64648438 C0.07579391 7.76416994 0.0413706 3.88215356 0 0 Z " fill="#A44343" transform="translate(180,283)"/>
<path d="M0 0 C0.33 0 0.66 0 1 0 C1 7.59 1 15.18 1 23 C-6.92 23 -14.84 23 -23 23 C-23 20.36 -23 17.72 -23 15 C-22.2575 14.71125 -21.515 14.4225 -20.75 14.125 C-16.02658755 12.2335263 -16.02658755 12.2335263 -12.125 9.0625 C-9.64364985 6.65413074 -7.08060573 5.54030286 -4 4 C-2.63015802 2.70420353 -1.2848951 1.38007251 0 0 Z " fill="#FDFEFA" transform="translate(215,265)"/>
<path d="M0 0 C2.31 0 4.62 0 7 0 C6.76334167 4.36067695 6.5148399 8.72046874 6.25537109 13.07983398 C6.16878156 14.56272035 6.08542333 16.04579909 6.00537109 17.52905273 C5.88969689 19.66188516 5.76239353 21.79375415 5.6328125 23.92578125 C5.55949707 25.20880127 5.48618164 26.49182129 5.41064453 27.8137207 C4.90389733 31.74568129 3.17830599 33.73254102 1 37 C0.67 24.79 0.34 12.58 0 0 Z " fill="#9C4342" transform="translate(180,283)"/>
<path d="M0 0 C1 3 1 3 0.0625 5.1875 C-0.288125 5.785625 -0.63875 6.38375 -1 7 C-0.01 7.99 0.98 8.98 2 10 C1.34 10 0.68 10 0 10 C-0.66 11.32 -1.32 12.64 -2 14 C-2.66 14 -3.32 14 -4 14 C-4.28875 14.721875 -4.5775 15.44375 -4.875 16.1875 C-6 19 -6 19 -7.0625 21.15625 C-8.29414814 24.89224937 -8.21523113 28.42909116 -8.125 32.3125 C-8.11597656 33.05306641 -8.10695313 33.79363281 -8.09765625 34.55664062 C-8.07424213 36.37123467 -8.03837615 38.18566071 -8 40 C-10.87497116 35.68754327 -10.32988239 31.88468263 -10.3125 26.8125 C-10.32861328 25.89146484 -10.34472656 24.97042969 -10.36132812 24.02148438 C-10.36704548 15.96573613 -9.0431911 9.55506984 -3.3125 3.5 C-2.68988281 2.8296875 -2.06726563 2.159375 -1.42578125 1.46875 C-0.95527344 0.9840625 -0.48476562 0.499375 0 0 Z " fill="#C1BA58" transform="translate(78,80)"/>
<path d="M0 0 C3.96 0 7.92 0 12 0 C11.16374016 4.34855117 10.71848186 6.45332902 7.125 9.1875 C5.578125 10.0846875 5.578125 10.0846875 4 11 C2.68 12.32 1.36 13.64 0 15 C0 10.05 0 5.1 0 0 Z " fill="#EBECE6" transform="translate(72,72)"/>
<path d="M0 0 C2.79163095 4.18744642 2.53134654 7.87869045 2.75 12.8125 C2.80542969 13.70259766 2.86085938 14.59269531 2.91796875 15.50976562 C3.16225964 20.50292343 2.94857119 24.30177835 1 29 C0.63893903 30.66088045 0.29537827 32.32618981 0 34 C-0.66 33.67 -1.32 33.34 -2 33 C-1.98839844 32.36191406 -1.97679687 31.72382813 -1.96484375 31.06640625 C-1.95582031 30.24011719 -1.94679688 29.41382813 -1.9375 28.5625 C-1.92009766 27.32693359 -1.92009766 27.32693359 -1.90234375 26.06640625 C-1.76732652 24.00836062 -1.76732652 24.00836062 -3 23 C-3.66 23.66 -4.32 24.32 -5 25 C-5 21.04 -5 17.08 -5 13 C-3.515 13.99 -3.515 13.99 -2 15 C0.76223278 12.23776722 0.57856291 9.79293383 1 6 C0.34 6 -0.32 6 -1 6 C-0.67 4.02 -0.34 2.04 0 0 Z " fill="#F7EC49" transform="translate(288,101)"/>
<path d="M0 0 C7.01172491 6.41071992 10.59327416 12.33406141 11.10595703 21.99707031 C11.16853789 24.06174585 11.18556049 26.12192706 11.1875 28.1875 C11.19974609 28.88552734 11.21199219 29.58355469 11.22460938 30.30273438 C11.23556187 34.13976005 10.85237022 36.66922084 9 40 C8.93941406 38.68644531 8.87882812 37.37289062 8.81640625 36.01953125 C8.73196744 34.28384459 8.64732112 32.54816802 8.5625 30.8125 C8.52318359 29.94818359 8.48386719 29.08386719 8.44335938 28.19335938 C8.23584206 24.02705022 7.92714007 20.07941629 7 16 C6.9629721 14.3337447 6.95240038 12.66598681 7 11 C5.02 11.33 3.04 11.66 1 12 C-0.00746004 8.86567988 0.21545863 7.13816549 1 4 C0.62092718 1.81296615 0.62092718 1.81296615 0 0 Z " fill="#DFD877" transform="translate(282,80)"/>
<path d="M0 0 C1.64703306 0.81006526 3.29259506 1.6231221 4.9375 2.4375 C5.85402344 2.88996094 6.77054688 3.34242188 7.71484375 3.80859375 C10 5 10 5 11 6 C11 7.65 11 9.3 11 11 C7.04 11 3.08 11 -1 11 C-1.125 2.25 -1.125 2.25 0 0 Z " fill="#ECEDEB" transform="translate(169,277)"/>
<path d="M0 0 C3.63 0 7.26 0 11 0 C11 4.62 11 9.24 11 14 C10.236875 13.195625 9.47375 12.39125 8.6875 11.5625 C6.20569102 8.83200976 6.20569102 8.83200976 3 8 C0 2.77777778 0 2.77777778 0 0 Z " fill="#ECEEE7" transform="translate(277,72)"/>
<path d="M0 0 C0.66 0.33 1.32 0.66 2 1 C2.33 1.99 2.66 2.98 3 4 C3.66 3.34 4.32 2.68 5 2 C5.33 3.98 5.66 5.96 6 8 C6.66 8 7.32 8 8 8 C7.67 8.99 7.34 9.98 7 11 C6.67 10.34 6.34 9.68 6 9 C5.34 9 4.68 9 4 9 C4 8.34 4 7.68 4 7 C3.2575 7.7425 2.515 8.485 1.75 9.25 C0.8425 10.1575 -0.065 11.065 -1 12 C-1.680625 12.721875 -2.36125 13.44375 -3.0625 14.1875 C-6.41322287 17.3220472 -8.70552822 18.10899834 -13.25 18.125 C-14.4875 18.08375 -15.725 18.0425 -17 18 C-17 17.67 -17 17.34 -17 17 C-16.40832031 16.87625 -15.81664062 16.7525 -15.20703125 16.625 C-10.40527034 15.37168557 -7.70508974 14.31174445 -5.125 9.9375 C-4.77695313 9.24527344 -4.42890625 8.55304688 -4.0703125 7.83984375 C-3 6 -3 6 0 4 C0 2.68 0 1.36 0 0 Z " fill="#9E3639" transform="translate(180,322)"/>
<path d="M0 0 C0.33 0 0.66 0 1 0 C1 5.28 1 10.56 1 16 C2.32 16 3.64 16 5 16 C5.1799928 21.21979128 4.97094808 25.07262981 3 30 C3.66 30 4.32 30 5 30 C5.33 30.99 5.66 31.98 6 33 C5.34 33.66 4.68 34.32 4 35 C0.33505747 29.58225886 -0.13223067 24.59490551 -0.09765625 18.1640625 C-0.09443359 17.10058594 -0.09121094 16.03710938 -0.08789062 14.94140625 C-0.07951172 13.84699219 -0.07113281 12.75257813 -0.0625 11.625 C-0.05798828 10.50738281 -0.05347656 9.38976562 -0.04882812 8.23828125 C-0.03709244 5.49213196 -0.02067363 2.74609414 0 0 Z " fill="#EDD4D4" transform="translate(185,296)"/>
<path d="M0 0 C0.66 0 1.32 0 2 0 C1.625 1.9375 1.625 1.9375 1 4 C0.01 4.495 0.01 4.495 -1 5 C-1.69093896 7.57951874 -1.69093896 7.57951874 -2.125 10.5625 C-2.29257812 11.57441406 -2.46015625 12.58632812 -2.6328125 13.62890625 C-2.75398438 14.41136719 -2.87515625 15.19382812 -3 16 C-2.34 16 -1.68 16 -1 16 C-0.67 17.65 -0.34 19.3 0 21 C1.98 21.66 3.96 22.32 6 23 C6.33 22.34 6.66 21.68 7 21 C7.66 21.66 8.32 22.32 9 23 C10.31747324 23.69748583 11.64914193 24.36959957 13 25 C9.66646715 26.66676642 6.56046505 26.8501649 3 26 C-0.27079485 23.85833508 -2.23826026 21.48089966 -4 18 C-5.04769266 12.54059471 -5.1408722 7.08915616 -2.125 2.25 C-1.42375 1.5075 -0.7225 0.765 0 0 Z " fill="#312E0B" transform="translate(261,110)"/>
<path d="M0 0 C0.98120464 3.05263664 0.98120464 4.94736336 0 8 C-0.66 8 -1.32 8 -2 8 C-3.47125333 21.24725322 -3.47125333 21.24725322 -0.59375 34.0546875 C0.12202546 36.39979394 -0.21975077 37.71058449 -1 40 C-2.25664978 37.09399739 -3 35.20395416 -3 32 C-3.66 32 -4.32 32 -5 32 C-5.50238923 9.50412685 -5.50238923 9.50412685 0 0 Z " fill="#F0E444" transform="translate(249,104)"/>
<path d="M0 0 C2.875 -0.125 2.875 -0.125 6 0 C8 2 8 2 8.3125 4.5 C8.1578125 5.7375 8.1578125 5.7375 8 7 C5 9 5 9 2.375 8.6875 C0 8 0 8 -1 7 C-0.71269945 4.66055264 -0.38063221 2.3260857 0 0 Z " fill="#3F5A08" transform="translate(189,254)"/>
<path d="M0 0 C0.763125 0.20625 1.52625 0.4125 2.3125 0.625 C3 2.9375 3 2.9375 3.3125 5.625 C2.1875 7.5 2.1875 7.5 0.3125 8.625 C-4.10855263 8.20394737 -4.10855263 8.20394737 -5.6875 6.625 C-5.9375 4.1875 -5.9375 4.1875 -5.6875 1.625 C-2.6875 -0.375 -2.6875 -0.375 0 0 Z " fill="#354C07" transform="translate(173.6875,254.375)"/>
<path d="M0 0 C1.32 0 2.64 0 4 0 C4.33 0.66 4.66 1.32 5 2 C6.98 2 8.96 2 11 2 C11.06058594 2.63808594 11.12117188 3.27617188 11.18359375 3.93359375 C11.26738281 4.75988281 11.35117187 5.58617188 11.4375 6.4375 C11.51871094 7.26121094 11.59992188 8.08492187 11.68359375 8.93359375 C11.78930815 10.98662025 11.78930815 10.98662025 13 12 C13.08651611 13.41570123 13.10704904 14.835595 13.09765625 16.25390625 C13.09443359 17.10791016 13.09121094 17.96191406 13.08789062 18.84179688 C13.07951172 19.73962891 13.07113281 20.63746094 13.0625 21.5625 C13.05798828 22.46419922 13.05347656 23.36589844 13.04882812 24.29492188 C13.03700225 26.53001314 13.0205222 28.76497437 13 31 C12.67 31 12.34 31 12 31 C11.96261719 29.96101563 11.92523438 28.92203125 11.88671875 27.8515625 C11.53207428 19.83986525 10.89460661 12.57331038 8 5 C7.21238281 4.87753906 6.42476563 4.75507812 5.61328125 4.62890625 C2.40378 3.85651507 1.6863644 2.75143666 0 0 Z " fill="#E6DB4B" transform="translate(278,89)"/>
<path d="M0 0 C8.8511612 9.1672741 9.17409758 22.04529939 9 34 C8.67 34 8.34 34 8 34 C7.84144531 32.83984375 7.68289062 31.6796875 7.51953125 30.484375 C6.26617893 21.9086129 4.79529032 14.26635341 0.98828125 6.3828125 C0 4 0 4 0 0 Z " fill="#ABB251" transform="translate(117,94)"/>
<path d="M0 0 C-0.598125 0.268125 -1.19625 0.53625 -1.8125 0.8125 C-4.03024161 1.84762245 -4.03024161 1.84762245 -5.33129883 3.5559082 C-7.58499969 5.50625796 -8.93922645 5.34655952 -11.88671875 5.29296875 C-12.82451172 5.28330078 -13.76230469 5.27363281 -14.72851562 5.26367188 C-15.70498047 5.23853516 -16.68144531 5.21339844 -17.6875 5.1875 C-18.67556641 5.17396484 -19.66363281 5.16042969 -20.68164062 5.14648438 C-23.12164231 5.11112203 -25.56054719 5.06177033 -28 5 C-28 4.67 -28 4.34 -28 4 C-24.83601018 3.32019419 -21.66846323 2.65861314 -18.5 2 C-17.613125 1.80921875 -16.72625 1.6184375 -15.8125 1.421875 C-10.422217 0.31211085 -5.50240809 -0.2056975 0 0 Z " fill="#82A472" transform="translate(168,18)"/>
<path d="M0 0 C0.99 0.495 0.99 0.495 2 1 C2.625 3.5625 2.625 3.5625 3 6 C3.99 6.33 4.98 6.66 6 7 C7.1875 9.5625 7.1875 9.5625 8 12 C5.36 12 2.72 12 0 12 C0 8.04 0 4.08 0 0 Z " fill="#EEECDB" transform="translate(72,132)"/>
<path d="M0 0 C-1.57770562 3.87255015 -3.74758897 6.38393026 -7 9 C-9.73284495 9.69968943 -12.15797216 9.85549011 -15 10 C-11.33829025 5.99500496 -5.76187936 0 0 0 Z " fill="#638C4E" transform="translate(122,29)"/>
<path d="M0 0 C0.66 0 1.32 0 2 0 C2.66 1.98 3.32 3.96 4 6 C3.45730469 6.18175781 2.91460937 6.36351562 2.35546875 6.55078125 C1.64003906 6.80214844 0.92460937 7.05351562 0.1875 7.3125 C-0.52019531 7.55613281 -1.22789062 7.79976563 -1.95703125 8.05078125 C-4.14472373 9.06724258 -5.40896718 10.20820594 -7 12 C-8.32 11.34 -9.64 10.68 -11 10 C-6.25 7 -6.25 7 -4 7 C-3.71125 6.401875 -3.4225 5.80375 -3.125 5.1875 C-2 3 -2 3 0 0 Z " fill="#EBD3D3" transform="translate(182,329)"/>
<path d="M0 0 C0.66 0 1.32 0 2 0 C2 6.6 2 13.2 2 20 C1.34 20.33 0.68 20.66 0 21 C0 18.69 0 16.38 0 14 C-0.66 14 -1.32 14 -2 14 C-1.855625 13.175 -1.71125 12.35 -1.5625 11.5 C-0.94746848 7.67313722 -0.46439363 3.84783293 0 0 Z " fill="#EFECED" transform="translate(190,312)"/>
<path d="M0 0 C0.33 0.66 0.66 1.32 1 2 C-0.3921875 2.1546875 -0.3921875 2.1546875 -1.8125 2.3125 C-5.03254358 3.0070192 -6.02579865 3.47740939 -8 6 C-8 5.34 -8 4.68 -8 4 C-8.66 4 -9.32 4 -10 4 C-10.66 5.65 -11.32 7.3 -12 9 C-12.66 9 -13.32 9 -14 9 C-13.72253508 5.67042093 -13.18903896 4.21195277 -10.9375 1.6875 C-6.9791531 -0.58644396 -4.51277506 -0.30595085 0 0 Z " fill="#17160A" transform="translate(93,106)"/>
<path d="M0 0 C0.33 0 0.66 0 1 0 C1.75 2.75 1.75 2.75 2 6 C-0.17758747 8.90344996 -2.55688943 10.85229648 -6 12 C-8.69105129 12.15525296 -11.29965674 12.09001144 -14 12 C-14 11.67 -14 11.34 -14 11 C-13.40832031 10.87625 -12.81664062 10.7525 -12.20703125 10.625 C-7.32421022 9.35052795 -4.65492897 8.23738162 -2 3.8125 C-1.62875 3.09707031 -1.2575 2.38164062 -0.875 1.64453125 C-0.58625 1.10183594 -0.2975 0.55914062 0 0 Z " fill="#A15052" transform="translate(177,328)"/>
<path d="M0 0 C1.1171875 3.71875 1.1171875 3.71875 0.0625 6.25 C-0.4634375 7.11625 -0.4634375 7.11625 -1 8 C-0.01 8 0.98 8 2 8 C1.42655063 10.86724686 1.1385485 11.8614515 -1 14 C-1.66 14 -2.32 14 -3 14 C-3.33 14.66 -3.66 15.32 -4 16 C-4.66 16 -5.32 16 -6 16 C-4.27933894 10.55123997 -2.15294651 5.28830549 0 0 Z " fill="#E0EADB" transform="translate(262,184)"/>
<path d="M0 0 C0.99 0.33 1.98 0.66 3 1 C3.05420701 3.56278699 3.09377007 6.12441483 3.125 8.6875 C3.14175781 9.40873047 3.15851563 10.12996094 3.17578125 10.87304688 C3.22265043 16.00522239 2.67603222 19.71450152 -0.375 23.875 C-2 25 -2 25 -4.1875 24.6875 C-4.785625 24.460625 -5.38375 24.23375 -6 24 C-4.71034824 22.62437146 -3.37310707 21.29233607 -2 20 C-1.34 20 -0.68 20 0 20 C0.81862159 16.4201548 1.13520898 13.10762899 1.125 9.4375 C1.12886719 8.04337891 1.12886719 8.04337891 1.1328125 6.62109375 C1.01309964 4.25852524 0.66993233 2.25969237 0 0 Z " fill="#CCC53F" transform="translate(280,110)"/>
<path d="M0 0 C4.29 0 8.58 0 13 0 C13.33 1.32 13.66 2.64 14 4 C10.22134307 5.25955231 8.96588214 4.48087189 5.3125 3.0625 C4.31863281 2.68222656 3.32476562 2.30195313 2.30078125 1.91015625 C1.54152344 1.60980469 0.78226563 1.30945313 0 1 C0 0.67 0 0.34 0 0 Z " fill="#EDEEEC" transform="translate(227,24)"/>
<path d="M0 0 C0.66 0.33 1.32 0.66 2 1 C0.625 2.5 0.625 2.5 -1 4 C-1.66 4 -2.32 4 -3 4 C-3.04125 4.7425 -3.0825 5.485 -3.125 6.25 C-4.34857383 10.09551776 -6.59346582 11.04305483 -10 13 C-9.34 10.69 -8.68 8.38 -8 6 C-6.68 5.67 -5.36 5.34 -4 5 C-4 4.34 -4 3.68 -4 3 C-2 1.375 -2 1.375 0 0 Z " fill="#EAE046" transform="translate(260,91)"/>
<path d="M0 0 C3.93548431 3.06093224 6.68116787 5.49115974 9 10 C8.34 10 7.68 10 7 10 C6.67 10.66 6.34 11.32 6 12 C5.896875 11.360625 5.79375 10.72125 5.6875 10.0625 C5.460625 9.381875 5.23375 8.70125 5 8 C4.01 7.67 3.02 7.34 2 7 C1.6278958 5.67696283 1.29369827 4.34262065 1 3 C0.34 2.67 -0.32 2.34 -1 2 C-0.67 1.34 -0.34 0.68 0 0 Z " fill="#6F9E56" transform="translate(258,45)"/>
<path d="M0 0 C0.33 0 0.66 0 1 0 C1.4375 3.1875 1.4375 3.1875 1 7 C-1.08545034 9.11158381 -3.41206193 10.56739143 -6 12 C-6 7.97132081 -4.29656299 6.24220658 -2 3 C-1.34 2.01 -0.68 1.02 0 0 Z " fill="#E5F2CB" transform="translate(239,233)"/>
<path d="M0 0 C0.66 0 1.32 0 2 0 C2 2.97 2 5.94 2 9 C0.02 9 -1.96 9 -4 9 C-2.68 6.03 -1.36 3.06 0 0 Z " fill="#F0EEE1" transform="translate(286,135)"/>
<path d="M0 0 C2.88563313 2.3153499 3.91814666 3.43812538 4.4609375 7.1640625 C4.43257813 8.30617188 4.40421875 9.44828125 4.375 10.625 C4.36210938 11.77226563 4.34921875 12.91953125 4.3359375 14.1015625 C4 17 4 17 2 19 C2.02320312 18.33613281 2.04640625 17.67226562 2.0703125 16.98828125 C2.16988593 12.11629574 2.10711555 8.47762055 0 4 C0 2.68 0 1.36 0 0 Z " fill="#272204" transform="translate(99,111)"/>
<path d="M0 0 C1.65 0.33 3.3 0.66 5 1 C4.67 2.32 4.34 3.64 4 5 C-1.28 5 -6.56 5 -12 5 C-8.96474514 2.97649676 -7.80573798 2.67875982 -4.3125 2.375 C-3.50425781 2.30023438 -2.69601562 2.22546875 -1.86328125 2.1484375 C-1.24839844 2.09945312 -0.63351562 2.05046875 0 2 C0 1.34 0 0.68 0 0 Z " fill="#7EA64D" transform="translate(273,73)"/>
<path d="M0 0 C0.625 1.875 0.625 1.875 1 4 C0.34 4.66 -0.32 5.32 -1 6 C-1.33 5.67 -1.66 5.34 -2 5 C-2.4021875 6.2065625 -2.4021875 6.2065625 -2.8125 7.4375 C-3.204375 8.283125 -3.59625 9.12875 -4 10 C-4.99 10.33 -5.98 10.66 -7 11 C-7 11.66 -7 12.32 -7 13 C-7.66 13 -8.32 13 -9 13 C-7.47987323 7.59510481 -3.72614782 4.01507372 0 0 Z " fill="#7B9C6A" transform="translate(100,45)"/>
<path d="M0 0 C-6.91284647 4.04654428 -14.25824503 3.26901851 -22 3 C-22 2.67 -22 2.34 -22 2 C-20.948125 1.92652344 -20.948125 1.92652344 -19.875 1.8515625 C-15.3052343 1.49144509 -10.92828479 1.09773535 -6.5 -0.125 C-3 -1 -3 -1 0 0 Z " fill="#A8AF49" transform="translate(115,150)"/>
<path d="M0 0 C1 3 1 3 0.375 5.375 C-1.27960884 8.53379869 -3.39000967 10.59606154 -6 13 C-5.58221009 7.2902045 -3.42453429 4.39042858 0 0 Z " fill="#C8C378" transform="translate(75,83)"/>
<path d="M0 0 C0.33 0.99 0.66 1.98 1 3 C1.66 2.67 2.32 2.34 3 2 C2.55090939 3.48199902 2.09043436 4.96055236 1.625 6.4375 C1.24214844 7.67306641 1.24214844 7.67306641 0.8515625 8.93359375 C0 11 0 11 -2 12 C-2.28571429 3.42857143 -2.28571429 3.42857143 0 0 Z " fill="#0C0C08" transform="translate(260,114)"/>
<path d="M0 0 C3.96 0 7.92 0 12 0 C9.77174356 2.22825644 8.34238372 2.69239369 5.375 3.625 C4.55773437 3.88539062 3.74046875 4.14578125 2.8984375 4.4140625 C2.27195312 4.60742188 1.64546875 4.80078125 1 5 C0.67 3.35 0.34 1.7 0 0 Z " fill="#E4EAE3" transform="translate(120,24)"/>
<path d="M0 0 C0.9075 0.78375 1.815 1.5675 2.75 2.375 C5.05190236 4.30052496 7.21577207 5.82205741 10 7 C10 7.33 10 7.66 10 8 C5.55578397 8.39213671 2.81312925 7.25321274 -1 5 C-1.33 4.34 -1.66 3.68 -2 3 C-1.34 2.67 -0.68 2.34 0 2 C0 1.34 0 0.68 0 0 Z " fill="#BD7778" transform="translate(190,333)"/>
<path d="M0 0 C0.33 0.66 0.66 1.32 1 2 C1.66 2.33 2.32 2.66 3 3 C2.67 4.32 2.34 5.64 2 7 C0.02 7.33 -1.96 7.66 -4 8 C-2.87548273 5.0280615 -1.77706209 2.66559313 0 0 Z " fill="#C2B946" transform="translate(112,142)"/>
<path d="M0 0 C1.125 1.6875 1.125 1.6875 2 4 C1.125 6.75 1.125 6.75 0 9 C-0.33 8.01 -0.66 7.02 -1 6 C-2.32 6.33 -3.64 6.66 -5 7 C-5 6.34 -5 5.68 -5 5 C-4.34 4.67 -3.68 4.34 -3 4 C-3.66 3.34 -4.32 2.68 -5 2 C-3.35 1.34 -1.7 0.68 0 0 Z " fill="#ECE54E" transform="translate(273,145)"/>
<path d="M0 0 C-0.33 2.64 -0.66 5.28 -1 8 C-1.66 7.01 -2.32 6.02 -3 5 C-3.66 6.32 -4.32 7.64 -5 9 C-5 6.36 -5 3.72 -5 1 C-1.125 0 -1.125 0 0 0 Z " fill="#A4403C" transform="translate(187,283)"/>
<path d="M0 0 C0.78246094 -0.02578125 1.56492187 -0.0515625 2.37109375 -0.078125 C5.04181509 0.32176911 5.88227439 1.19699122 7.5625 3.25 C4.47092747 4.79578627 1.87776981 3.85277633 -1.4375 3.25 C-1.7675 2.92 -2.0975 2.59 -2.4375 2.25 C-3.76344105 1.88837971 -5.09688457 1.55271961 -6.4375 1.25 C-4.11063547 0.08656773 -2.59028587 0.05104012 0 0 Z " fill="#3E3910" transform="translate(270.4375,105.75)"/>
<path d="M0 0 C-0.11409593 1.45922693 -0.24165544 2.91740598 -0.375 4.375 C-0.44460938 5.18710938 -0.51421875 5.99921875 -0.5859375 6.8359375 C-1 9 -1 9 -3 11 C-3 8.03 -3 5.06 -3 2 C-3.66 1.67 -4.32 1.34 -5 1 C-2 0 -2 0 0 0 Z " fill="#7AA359" transform="translate(272,151)"/>
<path d="M0 0 C0.66 0 1.32 0 2 0 C2.53394179 1.4117783 3.05165104 2.82970244 3.5625 4.25 C3.85253906 5.03890625 4.14257812 5.8278125 4.44140625 6.640625 C5.04522837 9.19103452 4.8473932 10.55322229 4 13 C3.32694982 11.39850114 2.66177773 9.79368971 2 8.1875 C1.62875 7.29417969 1.2575 6.40085938 0.875 5.48046875 C0 3 0 3 0 0 Z " fill="#D8D15D" transform="translate(71,125)"/>
<path d="M0 0 C0 1.66666667 0 3.33333333 0 5 C-1.75 6.0625 -1.75 6.0625 -4 7 C-5.32 6.67 -6.64 6.34 -8 6 C-5.36 4.02 -2.72 2.04 0 0 Z " fill="#769962" transform="translate(115,32)"/>
<path d="M0 0 C2.5654594 2.5654594 2.54046087 4.47686668 3 8 C-1.67692308 6.52307692 -1.67692308 6.52307692 -3.3125 3.875 C-3.539375 3.25625 -3.76625 2.6375 -4 2 C-3.01 2.33 -2.02 2.66 -1 3 C-0.67 2.01 -0.34 1.02 0 0 Z " fill="#AF4E4F" transform="translate(188,329)"/>
<path d="M0 0 C1.77260631 0.45142775 3.5430368 0.91140523 5.3125 1.375 C6.79169922 1.75785156 6.79169922 1.75785156 8.30078125 2.1484375 C11 3 11 3 14 5 C12.41562883 4.93952782 10.83232942 4.85061054 9.25 4.75 C7.92742187 4.68039063 7.92742187 4.68039063 6.578125 4.609375 C3.37038784 3.85118258 2.11172465 2.46696805 0 0 Z " fill="#C4CA54" transform="translate(244,148)"/>
<path d="M0 0 C3.375 0.25 3.375 0.25 7 1 C8.375 2.9375 8.375 2.9375 9 5 C9.33 5.66 9.66 6.32 10 7 C8.02 6.34 6.04 5.68 4 5 C4 4.34 4 3.68 4 3 C2.68 2.34 1.36 1.68 0 1 C0 0.67 0 0.34 0 0 Z " fill="#B2D070" transform="translate(158,269)"/>
<path d="M0 0 C4.875 4.625 4.875 4.625 6 8 C4.02 8 2.04 8 0 8 C0 7.34 0 6.68 0 6 C0.66 6 1.32 6 2 6 C1.34 4.02 0.68 2.04 0 0 Z " fill="#DFEACA" transform="translate(120,232)"/>
<path d="M0 0 C0.99 0.33 1.98 0.66 3 1 C3 1.99 3 2.98 3 4 C4.32 4.66 5.64 5.32 7 6 C6.34 7.32 5.68 8.64 5 10 C4.67 8.68 4.34 7.36 4 6 C3.34 6 2.68 6 2 6 C1.34 4.02 0.68 2.04 0 0 Z " fill="#ABC865" transform="translate(107,210)"/>
<path d="M0 0 C3 1 3 1 5 2 C4 5 4 5 1.9375 6.1875 C1.298125 6.455625 0.65875 6.72375 0 7 C-1.125 2.25 -1.125 2.25 0 0 Z " fill="#F3F7F1" transform="translate(116,25)"/>
<path d="M0 0 C0.66 0 1.32 0 2 0 C2 0.66 2 1.32 2 2 C2.66 2 3.32 2 4 2 C3.814375 2.598125 3.62875 3.19625 3.4375 3.8125 C2.77906313 6.16408762 2.77906313 6.16408762 4 9 C3.01 8.67 2.02 8.34 1 8 C0.67 5.36 0.34 2.72 0 0 Z " fill="#A9D83C" transform="translate(184,255)"/>
<path d="M0 0 C1.32 0.33 2.64 0.66 4 1 C4 1.99 4 2.98 4 4 C3.34 4 2.68 4 2 4 C1.67 4.99 1.34 5.98 1 7 C0.67 7 0.34 7 0 7 C0 4.69 0 2.38 0 0 Z " fill="#E0D739" transform="translate(259,106)"/>
<path d="M0 0 C-1.25 1.5625 -1.25 1.5625 -3 3 C-4.9375 2.6875 -4.9375 2.6875 -7 2 C-8.32 2 -9.64 2 -11 2 C-8.74490247 -2.51019507 -4.15738698 -0.70597137 0 0 Z " fill="#759A62" transform="translate(133,27)"/>
<path d="M0 0 C2.64752004 2.57784846 4.94432065 4.91648098 7 8 C5.35 8 3.7 8 2 8 C1.34 5.36 0.68 2.72 0 0 Z " fill="#E7EED8" transform="translate(142,256)"/>
<path d="M0 0 C0.99 0.33 1.98 0.66 3 1 C1.52307692 5.67692308 1.52307692 5.67692308 -1.125 7.3125 C-2.053125 7.6528125 -2.053125 7.6528125 -3 8 C-1.125 2.25 -1.125 2.25 0 0 Z " fill="#D0DFC9" transform="translate(259,192)"/>
<path d="M0 0 C0.66 0.33 1.32 0.66 2 1 C0.68 3.31 -0.64 5.62 -2 8 C-2.66 8 -3.32 8 -4 8 C-3.50168276 4.31245243 -2.89932357 2.39509338 0 0 Z " fill="#312D0B" transform="translate(83,107)"/>
<path d="M0 0 C1.66611905 -0.042721 3.33382885 -0.04063832 5 0 C6 1 6 1 6.0625 4.0625 C6.041875 5.031875 6.02125 6.00125 6 7 C1.125 2.25 1.125 2.25 0 0 Z " fill="#C1B838" transform="translate(96,107)"/>
<path d="M0 0 C2.97 0 5.94 0 9 0 C9 1.32 9 2.64 9 4 C6.03 3.01 3.06 2.02 0 1 C0 0.67 0 0.34 0 0 Z " fill="#DBE4D5" transform="translate(227,24)"/>
<path d="M0 0 C0 3.90838866 -1.50567876 5.11594107 -4 8 C-4.625 6.1875 -4.625 6.1875 -5 4 C-3 1 -3 1 0 0 Z " fill="#B6DE54" transform="translate(233,240)"/>
<path d="M0 0 C1.88391785 3.26545761 2.49287967 6.28111761 3 10 C1.68 9.34 0.36 8.68 -1 8 C-0.67 5.36 -0.34 2.72 0 0 Z " fill="#D1DECC" transform="translate(91,172)"/>
<path d="M0 0 C0.66 0.99 1.32 1.98 2 3 C1.34 3 0.68 3 0 3 C-0.144375 3.598125 -0.28875 4.19625 -0.4375 4.8125 C-0.8872439 6.56150404 -1.42892341 8.28677023 -2 10 C-2.66 10 -3.32 10 -4 10 C-2.99806563 6.20696275 -2.18975773 3.28463659 0 0 Z " fill="#C5CE5B" transform="translate(243,93)"/>
<path d="M0 0 C2.5 1.1875 2.5 1.1875 5 3 C5.3125 5.6875 5.3125 5.6875 5 8 C4.01 8 3.02 8 2 8 C1.34 5.36 0.68 2.72 0 0 Z " fill="#E3DCCF" transform="translate(175,280)"/>
<path d="M0 0 C-1.36983503 3.16115776 -1.9890638 3.9927092 -5 6 C-5.99 5.67 -6.98 5.34 -8 5 C-7.34 5 -6.68 5 -6 5 C-6 4.34 -6 3.68 -6 3 C-5.34 3 -4.68 3 -4 3 C-4 2.34 -4 1.68 -4 1 C-2 0 -2 0 0 0 Z " fill="#88B53F" transform="translate(178,208)"/>
<path d="M0 0 C0.33 0.99 0.66 1.98 1 3 C1.66 3.33 2.32 3.66 3 4 C2.67 4.66 2.34 5.32 2 6 C1.34 6 0.68 6 0 6 C0 7.32 0 8.64 0 10 C-0.66 10 -1.32 10 -2 10 C-1.34 6.7 -0.68 3.4 0 0 Z " fill="#E0EED8" transform="translate(269,162)"/>
<path d="M0 0 C0.99 0 1.98 0 3 0 C3 0.99 3 1.98 3 3 C2.01 3.33 1.02 3.66 0 4 C-0.66 4.99 -1.32 5.98 -2 7 C-2.125 4.625 -2.125 4.625 -2 2 C-1.34 1.34 -0.68 0.68 0 0 Z " fill="#E5D7C0" transform="translate(189,281)"/>
<path d="M0 0 C1.8125 1.5 1.8125 1.5 3 3 C-3.0546875 3.1953125 -3.0546875 3.1953125 -5 3 C-5.66 2.34 -6.32 1.68 -7 1 C-4.45132831 -0.27433584 -2.82594567 -0.27570202 0 0 Z " fill="#4C4918" transform="translate(93,133)"/>
</svg>
